<?xml version="1.0" encoding="utf-8"?>
<!-- Generator: Adobe Illustrator 26.0.2, SVG Export Plug-In . SVG Version: 6.00 Build 0)  -->
<svg version="1.1" id="Calque_1" xmlns="http://www.w3.org/2000/svg" xmlns:xlink="http://www.w3.org/1999/xlink" x="0px" y="0px"
	 viewBox="0 0 525 145" style="enable-background:new 0 0 525 145;" xml:space="preserve">
<style type="text/css">
	.st0{fill:#f29400;}
	.st1{enable-background:new    ;}
	.st2{fill:#f29400;}
	.st3{fill:none;stroke:#f29400;stroke-width:1.372;}
	.st4{fill:none;}
	.st5{fill:none;stroke:#f29400;stroke-width:2.209;stroke-linecap:round;stroke-linejoin:round;stroke-miterlimit:22.926;}
</style>
<g id="Groupe_1475" transform="translate(-685.729 -934.567)">
	<g id="Groupe_1422" transform="translate(-5.271 119.988)">
		<g>
			<defs>
				<rect id="SVGID_1_" x="713.9" y="830.2" width="491.5" height="112.8"/>
			</defs>
			<clipPath id="SVGID_00000134245857155228726660000005899875473294331798_">
				<use xlink:href="#SVGID_1_"  style="overflow:visible;"/>
			</clipPath>
		</g>
		<g class="st1">
			<path class="st2" d="M923.1,854.6c2.7,1.4,4.7,3.4,6.2,5.9c1.5,2.5,2.2,5.5,2.2,8.8c0,3.3-0.7,6.2-2.2,8.8
				c-1.5,2.6-3.5,4.5-6.2,6c-2.7,1.4-5.8,2.1-9.3,2.1h-12.6v-33.7h12.6C917.3,852.5,920.4,853.2,923.1,854.6z M920.5,876.6
				c1.7-1.7,2.6-4.1,2.6-7.2s-0.9-5.5-2.6-7.2c-1.7-1.7-4.1-2.6-7.2-2.6h-3.9v19.6h3.9C916.3,879.1,918.7,878.3,920.5,876.6z"/>
			<path class="st2" d="M936.5,855.4c-0.9-0.8-1.4-1.9-1.4-3.1c0-1.3,0.5-2.3,1.4-3.2c0.9-0.8,2.1-1.3,3.5-1.3
				c1.4,0,2.6,0.4,3.5,1.3s1.4,1.9,1.4,3.2c0,1.2-0.5,2.3-1.4,3.1s-2.1,1.3-3.5,1.3C938.6,856.7,937.4,856.2,936.5,855.4z
				 M944.1,859.4v26.8h-8.2v-26.8H944.1z"/>
			<path class="st2" d="M965.1,860.2c1.4,0.8,2.5,1.8,3.3,3v-3.8h8.2v26.7c0,2.5-0.5,4.7-1.5,6.7c-1,2-2.5,3.6-4.5,4.8
				s-4.5,1.8-7.5,1.8c-4,0-7.2-0.9-9.6-2.8c-2.5-1.9-3.9-4.4-4.2-7.6h8.1c0.3,1,0.9,1.8,1.8,2.4c1,0.6,2.1,0.9,3.6,0.9
				c1.7,0,3-0.5,4.1-1.5c1-1,1.5-2.5,1.5-4.7v-3.8c-0.8,1.2-1.9,2.3-3.3,3s-3.1,1.2-4.9,1.2c-2.2,0-4.2-0.6-6-1.7
				c-1.8-1.1-3.2-2.8-4.2-4.8c-1-2.1-1.6-4.5-1.6-7.3c0-2.8,0.5-5.2,1.6-7.2c1-2.1,2.5-3.7,4.2-4.8c1.8-1.1,3.8-1.7,6-1.7
				C962.1,859.1,963.7,859.4,965.1,860.2z M966.7,868c-1.1-1.2-2.5-1.8-4.2-1.8s-3,0.6-4.2,1.8s-1.7,2.8-1.7,4.8
				c0,2,0.6,3.7,1.7,4.9c1.1,1.2,2.5,1.8,4.2,1.8s3-0.6,4.2-1.8c1.1-1.2,1.7-2.8,1.7-4.8S967.9,869.2,966.7,868z"/>
			<path class="st2" d="M983.1,855.4c-0.9-0.8-1.4-1.9-1.4-3.1c0-1.3,0.5-2.3,1.4-3.2s2.1-1.3,3.5-1.3c1.4,0,2.6,0.4,3.5,1.3
				s1.4,1.9,1.4,3.2c0,1.2-0.5,2.3-1.4,3.1s-2.1,1.3-3.5,1.3C985.2,856.7,984,856.2,983.1,855.4z M990.7,859.4v26.8h-8.2v-26.8
				H990.7z"/>
			<path class="st2" d="M1011.5,879.3v7h-4.2c-3,0-5.3-0.7-7-2.2s-2.5-3.8-2.5-7.1v-10.7h-3.3v-6.8h3.3v-6.5h8.2v6.5h5.4v6.8h-5.4
				V877c0,0.8,0.2,1.4,0.6,1.7c0.4,0.4,1,0.5,1.9,0.5H1011.5z"/>
			<path class="st2" d="M1015.9,865.5c1-2.1,2.5-3.7,4.2-4.8c1.8-1.1,3.8-1.7,6-1.7c1.9,0,3.5,0.4,5,1.2c1.4,0.8,2.5,1.8,3.3,3v-3.8
				h8.2v26.8h-8.2v-3.8c-0.8,1.2-1.9,2.3-3.3,3c-1.4,0.8-3.1,1.2-5,1.2c-2.2,0-4.2-0.6-6-1.7c-1.8-1.1-3.2-2.8-4.2-4.8
				c-1-2.1-1.6-4.5-1.6-7.3C1014.3,870,1014.8,867.6,1015.9,865.5z M1032.7,868c-1.1-1.2-2.5-1.8-4.2-1.8c-1.6,0-3,0.6-4.2,1.8
				c-1.1,1.2-1.7,2.8-1.7,4.8c0,2,0.6,3.7,1.7,4.9c1.1,1.2,2.5,1.8,4.2,1.8c1.6,0,3-0.6,4.2-1.8c1.1-1.2,1.7-2.8,1.7-4.8
				S1033.8,869.2,1032.7,868z"/>
			<path class="st2" d="M1056.6,850.7v35.5h-8.2v-35.5H1056.6z"/>
			<path class="st2" d="M1063.1,855.4c-0.9-0.8-1.4-1.9-1.4-3.1c0-1.3,0.5-2.3,1.4-3.2s2.1-1.3,3.5-1.3c1.4,0,2.6,0.4,3.5,1.3
				s1.4,1.9,1.4,3.2c0,1.2-0.5,2.3-1.4,3.1s-2.1,1.3-3.5,1.3C1065.2,856.7,1064,856.2,1063.1,855.4z M1070.7,859.4v26.8h-8.2v-26.8
				H1070.7z"/>
			<path class="st2" d="M1081.2,885.4c-1.8-0.8-3.3-1.9-4.3-3.3c-1.1-1.4-1.6-3-1.8-4.7h8.1c0.1,0.9,0.5,1.7,1.3,2.3
				c0.8,0.6,1.7,0.9,2.8,0.9c1,0,1.8-0.2,2.4-0.6s0.8-0.9,0.8-1.6c0-0.8-0.4-1.3-1.2-1.7c-0.8-0.4-2.1-0.8-3.9-1.2
				c-1.9-0.4-3.5-0.9-4.8-1.4c-1.3-0.5-2.4-1.3-3.3-2.4c-0.9-1.1-1.4-2.5-1.4-4.3c0-1.5,0.4-2.9,1.3-4.2c0.8-1.3,2.1-2.3,3.7-3
				c1.6-0.7,3.6-1.1,5.9-1.1c3.4,0,6,0.8,7.9,2.5c1.9,1.7,3,3.9,3.3,6.6h-7.6c-0.1-0.9-0.5-1.7-1.2-2.2c-0.7-0.5-1.6-0.8-2.7-0.8
				c-1,0-1.7,0.2-2.2,0.6s-0.8,0.9-0.8,1.5c0,0.8,0.4,1.3,1.2,1.7s2.1,0.8,3.8,1.2c2,0.5,3.6,1,4.8,1.5c1.2,0.5,2.3,1.3,3.3,2.4
				c0.9,1.1,1.4,2.6,1.5,4.4c0,1.6-0.4,3-1.3,4.2c-0.9,1.2-2.1,2.2-3.8,2.9c-1.6,0.7-3.6,1.1-5.7,1.1
				C1085.1,886.6,1083,886.2,1081.2,885.4z"/>
			<path class="st2" d="M1128.4,874.8h-18.6c0.1,1.7,0.7,2.9,1.6,3.8c0.9,0.9,2.1,1.3,3.5,1.3c2,0,3.5-0.9,4.3-2.6h8.7
				c-0.4,1.8-1.3,3.3-2.4,4.8s-2.6,2.5-4.4,3.3c-1.8,0.8-3.7,1.2-5.9,1.2c-2.6,0-5-0.6-7-1.7s-3.6-2.7-4.8-4.8s-1.7-4.5-1.7-7.3
				c0-2.8,0.6-5.2,1.7-7.3c1.1-2.1,2.7-3.7,4.8-4.8c2-1.1,4.4-1.7,7.1-1.7c2.6,0,4.9,0.5,6.9,1.6c2,1.1,3.6,2.6,4.7,4.7
				c1.1,2,1.7,4.4,1.7,7.1C1128.5,873.2,1128.5,874,1128.4,874.8z M1120.1,870.2c0-1.4-0.5-2.5-1.4-3.4c-1-0.8-2.2-1.2-3.6-1.2
				c-1.4,0-2.5,0.4-3.5,1.2c-0.9,0.8-1.5,1.9-1.8,3.4H1120.1z"/>
			<path class="st2" d="M1144.5,860.4c1.4-0.8,3-1.3,4.8-1.3v8.7h-2.3c-2,0-3.6,0.4-4.6,1.3c-1,0.9-1.5,2.4-1.5,4.6v12.4h-8.2v-26.8
				h8.2v4.5C1141.9,862.4,1143.1,861.3,1144.5,860.4z"/>
		</g>
		<g id="Groupe" transform="translate(899.149 898.664)">
			<g class="st1">
				<path class="st2" d="M22,9.6V29h-2.5V14.6L13,29h-1.8L4.7,14.5V29H2.2V9.6h2.7l7.2,16l7.2-16H22z"/>
				<path class="st2" d="M28.8,28.3c-1.2-0.7-2.1-1.6-2.7-2.8c-0.7-1.2-1-2.6-1-4.2c0-1.6,0.3-3,1-4.2c0.7-1.2,1.6-2.1,2.8-2.8
					c1.2-0.6,2.5-1,3.9-1s2.8,0.3,3.9,1c1.2,0.6,2.1,1.6,2.8,2.8c0.7,1.2,1,2.6,1,4.2c0,1.6-0.3,3-1,4.2s-1.6,2.1-2.8,2.8
					c-1.2,0.7-2.5,1-4,1C31.2,29.3,29.9,28.9,28.8,28.3z M35.3,26.4c0.8-0.4,1.5-1.1,1.9-1.9c0.5-0.9,0.7-1.9,0.7-3.1
					c0-1.2-0.2-2.3-0.7-3.1s-1.1-1.5-1.9-1.9c-0.8-0.4-1.6-0.6-2.5-0.6c-0.9,0-1.8,0.2-2.6,0.6c-0.8,0.4-1.4,1.1-1.9,1.9
					s-0.7,1.9-0.7,3.1c0,1.3,0.2,2.3,0.7,3.2c0.5,0.9,1.1,1.5,1.8,1.9c0.8,0.4,1.6,0.6,2.5,0.6C33.6,27,34.4,26.8,35.3,26.4z"/>
				<path class="st2" d="M55.6,15.1c1.2,1.1,1.7,2.8,1.7,4.9v9h-2.5v-8.7c0-1.5-0.4-2.7-1.1-3.5c-0.8-0.8-1.8-1.2-3.1-1.2
					c-1.3,0-2.4,0.4-3.2,1.3c-0.8,0.8-1.2,2.1-1.2,3.7V29h-2.5V13.7h2.5v2.2c0.5-0.8,1.2-1.4,2.1-1.8c0.9-0.4,1.8-0.6,2.9-0.6
					C53,13.4,54.5,13.9,55.6,15.1z"/>
				<path class="st2" d="M71.2,28.3c-1.2-0.7-2.1-1.6-2.7-2.8c-0.7-1.2-1-2.6-1-4.2c0-1.6,0.3-3,1-4.2c0.7-1.2,1.6-2.1,2.8-2.8
					c1.2-0.6,2.5-1,3.9-1s2.8,0.3,3.9,1c1.2,0.6,2.1,1.6,2.8,2.8c0.7,1.2,1,2.6,1,4.2c0,1.6-0.3,3-1,4.2s-1.6,2.1-2.8,2.8
					c-1.2,0.7-2.5,1-4,1C73.7,29.3,72.4,28.9,71.2,28.3z M77.7,26.4c0.8-0.4,1.5-1.1,1.9-1.9c0.5-0.9,0.7-1.9,0.7-3.1
					c0-1.2-0.2-2.3-0.7-3.1s-1.1-1.5-1.9-1.9c-0.8-0.4-1.6-0.6-2.5-0.6c-0.9,0-1.8,0.2-2.6,0.6c-0.8,0.4-1.4,1.1-1.9,1.9
					s-0.7,1.9-0.7,3.1c0,1.3,0.2,2.3,0.7,3.2c0.5,0.9,1.1,1.5,1.8,1.9c0.8,0.4,1.6,0.6,2.5,0.6C76.1,27,76.9,26.8,77.7,26.4z"/>
				<path class="st2" d="M92.3,15.8h-3.2V29h-2.5V15.8h-2v-2.1h2v-1.1c0-1.7,0.4-3,1.3-3.8c0.9-0.8,2.3-1.2,4.3-1.2v2.1
					c-1.1,0-1.9,0.2-2.4,0.7c-0.5,0.4-0.7,1.2-0.7,2.2v1.1h3.2V15.8z"/>
				<path class="st2" d="M101.3,15.8h-3.2V29h-2.5V15.8h-2v-2.1h2v-1.1c0-1.7,0.4-3,1.3-3.8c0.9-0.8,2.3-1.2,4.3-1.2v2.1
					c-1.1,0-1.9,0.2-2.4,0.7c-0.5,0.4-0.7,1.2-0.7,2.2v1.1h3.2V15.8z"/>
				<path class="st2" d="M104,10.7c-0.3-0.3-0.5-0.7-0.5-1.2c0-0.5,0.2-0.9,0.5-1.2c0.3-0.3,0.7-0.5,1.2-0.5c0.5,0,0.9,0.2,1.2,0.5
					c0.3,0.3,0.5,0.7,0.5,1.2c0,0.5-0.2,0.9-0.5,1.2c-0.3,0.3-0.7,0.5-1.2,0.5C104.8,11.2,104.4,11,104,10.7z M106.5,13.7V29H104
					V13.7H106.5z"/>
				<path class="st2" d="M110.6,17.1c0.6-1.2,1.5-2.1,2.6-2.8c1.1-0.7,2.4-1,3.9-1c1.9,0,3.4,0.5,4.7,1.4c1.2,0.9,2,2.2,2.4,3.8
					h-2.7c-0.3-0.9-0.8-1.7-1.5-2.2c-0.8-0.5-1.7-0.8-2.8-0.8c-1.5,0-2.6,0.5-3.5,1.5c-0.9,1-1.3,2.4-1.3,4.2c0,1.8,0.4,3.3,1.3,4.3
					c0.9,1,2.1,1.5,3.5,1.5c1.1,0,2.1-0.3,2.8-0.8c0.7-0.5,1.3-1.3,1.5-2.2h2.7c-0.4,1.6-1.2,2.8-2.5,3.8c-1.2,0.9-2.8,1.4-4.6,1.4
					c-1.5,0-2.7-0.3-3.9-1c-1.1-0.7-2-1.6-2.6-2.8s-1-2.6-1-4.2C109.6,19.7,109.9,18.3,110.6,17.1z"/>
				<path class="st2" d="M127.4,10.7c-0.3-0.3-0.5-0.7-0.5-1.2c0-0.5,0.2-0.9,0.5-1.2c0.3-0.3,0.7-0.5,1.2-0.5
					c0.5,0,0.9,0.2,1.2,0.5c0.3,0.3,0.5,0.7,0.5,1.2c0,0.5-0.2,0.9-0.5,1.2c-0.3,0.3-0.7,0.5-1.2,0.5
					C128.1,11.2,127.7,11,127.4,10.7z M129.8,13.7V29h-2.5V13.7H129.8z"/>
				<path class="st2" d="M145.9,15.1c1.2,1.1,1.7,2.8,1.7,4.9v9h-2.5v-8.7c0-1.5-0.4-2.7-1.1-3.5c-0.8-0.8-1.8-1.2-3.1-1.2
					c-1.3,0-2.4,0.4-3.2,1.3c-0.8,0.8-1.2,2.1-1.2,3.7V29h-2.5V13.7h2.5v2.2c0.5-0.8,1.2-1.4,2.1-1.8c0.9-0.4,1.8-0.6,2.9-0.6
					C143.2,13.4,144.7,13.9,145.9,15.1z"/>
				<path class="st2" d="M165.5,22.3h-12.3c0.1,1.5,0.6,2.7,1.6,3.5c0.9,0.8,2.1,1.3,3.4,1.3c1.1,0,2-0.3,2.8-0.8s1.3-1.2,1.6-2.1
					h2.7c-0.4,1.5-1.2,2.7-2.5,3.6c-1.2,0.9-2.8,1.4-4.6,1.4c-1.5,0-2.8-0.3-3.9-1c-1.1-0.7-2-1.6-2.7-2.8c-0.7-1.2-1-2.6-1-4.2
					c0-1.6,0.3-3,1-4.2c0.6-1.2,1.5-2.1,2.7-2.8c1.1-0.6,2.5-1,4-1c1.5,0,2.7,0.3,3.9,1s2,1.5,2.6,2.6c0.6,1.1,0.9,2.4,0.9,3.8
					C165.5,21.2,165.5,21.7,165.5,22.3z M162.3,17.7c-0.4-0.7-1-1.2-1.8-1.6c-0.7-0.4-1.6-0.5-2.4-0.5c-1.3,0-2.4,0.4-3.3,1.2
					c-0.9,0.8-1.4,2-1.6,3.4h9.7C162.9,19.2,162.7,18.4,162.3,17.7z"/>
			</g>
		</g>
		<path id="Tracé_299" class="st3" d="M862.3,928.8v-83.5"/>
		<g id="Groupe_304" transform="translate(858.675 925.218)">
			<path id="Tracé_300" class="st2" d="M7.3,3.6c0-2-1.6-3.6-3.6-3.6C1.6,0,0,1.6,0,3.6c0,2,1.6,3.6,3.6,3.6
				C5.6,7.3,7.3,5.6,7.3,3.6C7.3,3.6,7.3,3.6,7.3,3.6"/>
		</g>
		<g id="Groupe_305" transform="translate(858.675 841.689)">
			<path id="Tracé_301" class="st2" d="M7.3,3.6c0-2-1.6-3.6-3.6-3.6C1.6,0,0,1.6,0,3.6c0,2,1.6,3.6,3.6,3.6
				C5.6,7.3,7.3,5.6,7.3,3.6C7.3,3.6,7.3,3.6,7.3,3.6"/>
		</g>
		<path id="Tracé_302" class="st4" d="M713.9,943h491.5V830.2H713.9V943z"/>
	</g>
</g>
<g id="Groupe_302" transform="translate(713.938 830.22)">
	<g id="Groupe_301" transform="translate(1.458 1.457)">
		<path id="Tracé_297" class="st5" d="M-599.5-775.3l-5.3-2.4l2-5.6c-0.8-0.7-1.6-1.5-2.2-2.4l-5.7,1.5l-2-5.5l5.3-2.5
			c-0.1-1.1-0.1-2.2,0.1-3.3l-5.1-2.9l2.4-5.3l5.5,2c0.7-0.8,1.5-1.6,2.4-2.2l-1.5-5.7l5.4-2l2.5,5.3c1.1-0.1,2.2-0.1,3.2,0.1
			l2.9-5.1l5.3,2.4l-2,5.6c0.8,0.7,1.6,1.5,2.2,2.4l5.7-1.5l2,5.5l-5.3,2.5c0.1,1.1,0.1,2.2-0.1,3.3l5.1,2.9l-2.4,5.3l-5.5-2
			c-0.7,0.8-1.5,1.6-2.4,2.2l1.5,5.7l-5.4,2l-2.5-5.3c-1.1,0.1-2.2,0.1-3.2-0.1L-599.5-775.3z M-596.2-798.1
			c2.4-1.1,5.1-0.1,6.2,2.3c0.1,0.2,0.2,0.5,0.3,0.7c1.1,2.4,0,5.2-2.3,6.3c-0.2,0.1-0.4,0.2-0.6,0.2c-2.4,1.1-5.1,0.1-6.2-2.3
			c-0.1-0.2-0.2-0.5-0.3-0.7c-1.1-2.4,0-5.2,2.3-6.3C-596.7-797.9-596.5-798-596.2-798.1L-596.2-798.1z M-631.7-732.4l-6.9-3.2
			l2.6-7.3c-1.1-0.9-2-2-2.9-3.1l-7.4,2l-2.6-7.2l6.9-3.3c-0.1-1.4-0.1-2.8,0.2-4.3l-6.6-3.8l3.2-6.9l7.2,2.6
			c0.9-1.1,1.9-2.1,3.1-2.9l-2-7.4l7.1-2.6l3.3,7c1.4-0.1,2.8-0.1,4.2,0.2l3.8-6.7l6.9,3.2l-2.6,7.3c1.1,0.9,2.1,2,2.9,3.1l7.4-2
			l2.6,7.2l-6.9,3.3c0.1,1.4,0.1,2.9-0.2,4.3l6.6,3.8l-3.2,6.9l-7.2-2.6c-0.9,1.1-1.9,2.1-3.1,2.9l2,7.4l-7.1,2.6l-3.3-7
			c-1.4,0.1-2.8,0.1-4.2-0.2L-631.7-732.4z M-628.2-764.4c4.6-1.7,9.7,0.7,11.4,5.3c0,0,0,0,0,0.1c1.7,4.6-0.6,9.8-5.3,11.6
			c-4.6,1.7-9.7-0.6-11.5-5.3c0,0,0,0,0-0.1C-635.2-757.5-632.9-762.6-628.2-764.4L-628.2-764.4z M-587.6-767.7v39.9
			c0,2.5-2,4.6-4.6,4.6h-83.2c-2.5,0-4.6-2.1-4.6-4.6v-54.8c0-2.5,2-4.6,4.6-4.6h55.7 M-588.3-722.9l11.6,16.6 M-576.7-706.3
			c0.5,0.7-0.8,1.6-1.7,1.6 M-578.4-704.7h-110.8c-0.9,0-2.2-0.8-1.7-1.6l11.6-16.6"/>
	</g>
</g>
</svg>
