<?xml version="1.0" encoding="utf-8"?>
<!-- Generator: Adobe Illustrator 26.0.2, SVG Export Plug-In . SVG Version: 6.00 Build 0)  -->
<svg version="1.1" id="Calque_1" xmlns="http://www.w3.org/2000/svg" xmlns:xlink="http://www.w3.org/1999/xlink" x="0px" y="0px"
	 viewBox="0 0 525 145" style="enable-background:new 0 0 525 145;" xml:space="preserve">
<style type="text/css">
	.st0{fill:#fab400;}
	.st1{enable-background:new    ;}
	.st2{fill:#fab400;}
	.st3{clip-path:url(#SVGID_00000029041711798605400430000000176798047883258015_);}
</style>
<g id="Groupe_1476" transform="translate(-145.579 -934.567)">
	<g id="Groupe_1421" transform="translate(-5.271 119.988)">
		<g id="Groupe_300" transform="translate(175.851 828.538)">
			<g id="Groupe" transform="translate(183.602 0)">
				<g class="st1">
					<path class="st2" d="M25.4,16.6v6.7h-14v7.3h10.5v6.5H11.4V51H3V16.6H25.4z"/>
					<path class="st2" d="M29.8,29.9c1.1-2.1,2.5-3.8,4.3-4.9c1.8-1.1,3.9-1.7,6.1-1.7c1.9,0,3.6,0.4,5.1,1.2
						c1.5,0.8,2.6,1.8,3.4,3.1v-3.9H57V51h-8.4v-3.9c-0.8,1.3-2,2.3-3.4,3.1c-1.5,0.8-3.1,1.2-5.1,1.2c-2.2,0-4.2-0.6-6.1-1.7
						c-1.8-1.2-3.3-2.8-4.3-4.9c-1.1-2.1-1.6-4.6-1.6-7.4S28.7,32,29.8,29.9z M46.9,32.4c-1.2-1.2-2.6-1.8-4.2-1.8s-3.1,0.6-4.2,1.8
						c-1.2,1.2-1.7,2.8-1.7,4.9s0.6,3.7,1.7,5c1.2,1.2,2.6,1.8,4.2,1.8s3.1-0.6,4.2-1.8c1.2-1.2,1.7-2.9,1.7-4.9
						C48.7,35.2,48.1,33.6,46.9,32.4z"/>
					<path class="st2" d="M63.2,29.9c1.2-2.1,2.8-3.8,4.9-4.9c2.1-1.1,4.5-1.7,7.1-1.7c3.4,0,6.3,0.9,8.6,2.7
						c2.3,1.8,3.8,4.3,4.5,7.6h-8.9c-0.8-2.1-2.2-3.1-4.4-3.1c-1.5,0-2.8,0.6-3.7,1.8c-0.9,1.2-1.4,2.9-1.4,5.1
						c0,2.2,0.5,3.9,1.4,5.1c0.9,1.2,2.1,1.8,3.7,1.8c2.2,0,3.6-1,4.4-3.1h8.9c-0.7,3.2-2.2,5.7-4.6,7.5s-5.2,2.7-8.6,2.7
						c-2.7,0-5.1-0.6-7.1-1.7c-2.1-1.1-3.7-2.8-4.9-4.9c-1.2-2.1-1.7-4.6-1.7-7.4S62,32,63.2,29.9z"/>
					<path class="st2" d="M93.4,19.5c-0.9-0.9-1.4-1.9-1.4-3.2c0-1.3,0.5-2.4,1.4-3.3c0.9-0.9,2.1-1.3,3.6-1.3
						c1.4,0,2.6,0.4,3.6,1.3s1.4,2,1.4,3.3c0,1.3-0.5,2.3-1.4,3.2c-0.9,0.9-2.1,1.3-3.6,1.3C95.5,20.8,94.3,20.4,93.4,19.5z
						 M101.1,23.7V51h-8.4V23.7H101.1z"/>
					<path class="st2" d="M115.6,14.7V51h-8.4V14.7H115.6z"/>
					<path class="st2" d="M122.3,19.5c-0.9-0.9-1.4-1.9-1.4-3.2c0-1.3,0.5-2.4,1.4-3.3c0.9-0.9,2.1-1.3,3.6-1.3
						c1.4,0,2.6,0.4,3.6,1.3s1.4,2,1.4,3.3c0,1.3-0.5,2.3-1.4,3.2c-0.9,0.9-2.1,1.3-3.6,1.3C124.4,20.8,123.2,20.4,122.3,19.5z
						 M130,23.7V51h-8.4V23.7H130z"/>
					<path class="st2" d="M151.4,43.9V51h-4.3c-3,0-5.4-0.7-7.1-2.2c-1.7-1.5-2.5-3.9-2.5-7.3V30.6h-3.3v-7h3.3V17h8.4v6.7h5.5v7
						h-5.5v11c0,0.8,0.2,1.4,0.6,1.8c0.4,0.4,1,0.5,2,0.5H151.4z"/>
					<path class="st2" d="M181.6,39.3h-19c0.1,1.7,0.7,3,1.6,3.9c1,0.9,2.1,1.3,3.6,1.3c2.1,0,3.5-0.9,4.4-2.6h8.9
						c-0.5,1.8-1.3,3.4-2.5,4.9s-2.7,2.6-4.5,3.4c-1.8,0.8-3.8,1.2-6,1.2c-2.7,0-5.1-0.6-7.2-1.7c-2.1-1.1-3.7-2.8-4.9-4.9
						s-1.8-4.6-1.8-7.4s0.6-5.3,1.7-7.4c1.2-2.1,2.8-3.8,4.9-4.9s4.5-1.7,7.2-1.7c2.6,0,5,0.6,7.1,1.7c2.1,1.1,3.7,2.7,4.8,4.8
						c1.2,2.1,1.7,4.5,1.7,7.2C181.8,37.7,181.7,38.5,181.6,39.3z M173.2,34.7c0-1.4-0.5-2.6-1.5-3.4c-1-0.8-2.2-1.3-3.7-1.3
						c-1.4,0-2.6,0.4-3.6,1.2c-1,0.8-1.6,2-1.8,3.5H173.2z"/>
					<path class="st2" d="M198.3,24.7c1.5-0.9,3.1-1.3,4.9-1.3v8.9h-2.3c-2.1,0-3.7,0.4-4.7,1.3c-1,0.9-1.6,2.5-1.6,4.7V51h-8.4
						V23.7h8.4v4.6C195.6,26.7,196.8,25.5,198.3,24.7z"/>
				</g>
			</g>
			<g id="Groupe-2" transform="translate(183.602 63.764)">
				<g class="st1">
					<path class="st2" d="M21.4,9.7V29h-2V13.6L12.5,29h-1.4L4.2,13.6V29h-2V9.7h2.1l7.5,16.7l7.5-16.7H21.4z"/>
					<path class="st2" d="M28.6,28.3c-1.1-0.6-2.1-1.6-2.7-2.7c-0.7-1.2-1-2.6-1-4.2c0-1.6,0.3-3,1-4.2s1.6-2.1,2.7-2.7
						c1.2-0.6,2.5-1,3.9-1s2.7,0.3,3.9,1c1.2,0.6,2.1,1.6,2.7,2.7c0.7,1.2,1,2.6,1,4.2c0,1.6-0.3,2.9-1,4.1s-1.6,2.1-2.8,2.8
						c-1.2,0.6-2.5,1-3.9,1C31.1,29.2,29.8,28.9,28.6,28.3z M35.3,26.8c0.9-0.5,1.6-1.1,2.1-2.1c0.5-0.9,0.8-2.1,0.8-3.4
						c0-1.3-0.3-2.5-0.8-3.4c-0.5-0.9-1.2-1.6-2.1-2.1c-0.9-0.5-1.8-0.7-2.8-0.7s-1.9,0.2-2.8,0.7c-0.9,0.5-1.5,1.1-2.1,2.1
						c-0.5,0.9-0.8,2.1-0.8,3.4c0,1.3,0.3,2.5,0.8,3.4c0.5,0.9,1.2,1.6,2,2.1c0.8,0.5,1.8,0.7,2.8,0.7
						C33.5,27.5,34.4,27.3,35.3,26.8z"/>
					<path class="st2" d="M55.4,15.1c1.2,1.1,1.7,2.8,1.7,4.9v9h-1.9v-8.7c0-1.7-0.4-2.9-1.2-3.8c-0.8-0.9-2-1.3-3.4-1.3
						c-1.5,0-2.7,0.5-3.5,1.4c-0.9,0.9-1.3,2.3-1.3,4.1V29h-2V13.7h2v2.6c0.5-0.9,1.2-1.6,2.1-2.1c0.9-0.5,2-0.7,3.1-0.7
						C52.8,13.4,54.3,14,55.4,15.1z"/>
					<path class="st2" d="M69.2,17.2c0.6-1.2,1.5-2.1,2.6-2.7c1.1-0.6,2.4-1,3.8-1c1.4,0,2.7,0.3,3.8,1c1.1,0.7,1.8,1.5,2.3,2.6
						v-3.4h2v22.5h-2V25.6c-0.4,1-1.2,1.9-2.3,2.6s-2.3,1-3.8,1c-1.4,0-2.6-0.3-3.7-1c-1.1-0.7-2-1.6-2.6-2.8
						c-0.6-1.2-0.9-2.6-0.9-4.1S68.6,18.4,69.2,17.2z M80.9,18.1c-0.5-0.9-1.2-1.7-2.1-2.2C78,15.4,77,15.2,76,15.2
						c-1.1,0-2.1,0.2-2.9,0.7c-0.9,0.5-1.5,1.2-2,2.1c-0.5,0.9-0.7,2-0.7,3.3c0,1.3,0.2,2.3,0.7,3.3c0.5,0.9,1.2,1.7,2,2.2
						c0.9,0.5,1.8,0.7,2.9,0.7c1,0,2-0.3,2.9-0.8c0.9-0.5,1.6-1.2,2.1-2.2c0.5-0.9,0.8-2,0.8-3.2C81.6,20.1,81.4,19,80.9,18.1z"/>
					<path class="st2" d="M101.3,13.7V29h-2v-2.7c-0.4,1-1.1,1.7-2.1,2.2c-0.9,0.5-2,0.8-3.1,0.8c-1.8,0-3.3-0.6-4.5-1.7
						c-1.2-1.1-1.7-2.8-1.7-4.9v-8.9h1.9v8.7c0,1.7,0.4,2.9,1.2,3.8c0.8,0.9,2,1.3,3.4,1.3c1.5,0,2.7-0.5,3.5-1.4
						c0.9-0.9,1.3-2.3,1.3-4.1v-8.3H101.3z"/>
					<path class="st2" d="M108.6,28.3c-1.1-0.6-2.1-1.6-2.7-2.7c-0.7-1.2-1-2.6-1-4.2c0-1.6,0.3-3,1-4.2s1.6-2.1,2.7-2.7
						c1.2-0.6,2.5-1,3.9-1s2.7,0.3,3.9,1c1.2,0.6,2.1,1.6,2.7,2.7c0.7,1.2,1,2.6,1,4.2c0,1.6-0.3,2.9-1,4.1s-1.6,2.1-2.8,2.8
						c-1.2,0.6-2.5,1-3.9,1S109.8,28.9,108.6,28.3z M115.3,26.8c0.9-0.5,1.6-1.1,2.1-2.1c0.5-0.9,0.8-2.1,0.8-3.4
						c0-1.3-0.3-2.5-0.8-3.4c-0.5-0.9-1.2-1.6-2.1-2.1c-0.9-0.5-1.8-0.7-2.8-0.7s-1.9,0.2-2.8,0.7c-0.9,0.5-1.5,1.1-2.1,2.1
						s-0.8,2.1-0.8,3.4c0,1.3,0.3,2.5,0.8,3.4s1.2,1.6,2,2.1c0.8,0.5,1.8,0.7,2.8,0.7S114.4,27.3,115.3,26.8z"/>
					<path class="st2" d="M126.3,15.4v9.5c0,0.9,0.2,1.6,0.5,1.9s1,0.5,1.9,0.5h1.8V29h-2.1c-1.4,0-2.4-0.3-3.1-1
						c-0.7-0.6-1-1.7-1-3.2v-9.5h-2.1v-1.7h2.1V9.9h2v3.8h4.2v1.7H126.3z"/>
					<path class="st2" d="M133.7,10.4c-0.3-0.3-0.4-0.6-0.4-1c0-0.4,0.1-0.8,0.4-1c0.3-0.3,0.6-0.4,1-0.4c0.4,0,0.7,0.1,1,0.4
						c0.3,0.3,0.4,0.6,0.4,1c0,0.4-0.1,0.8-0.4,1c-0.3,0.3-0.6,0.4-1,0.4C134.3,10.8,134,10.7,133.7,10.4z M135.7,13.7V29h-2V13.7
						H135.7z"/>
					<path class="st2" d="M140.2,17.2c0.6-1.2,1.5-2.1,2.6-2.7c1.1-0.6,2.4-1,3.8-1c1.3,0,2.6,0.3,3.6,1c1.1,0.7,1.9,1.5,2.4,2.5
						V8.3h2V29h-2v-3.4c-0.5,1.1-1.2,1.9-2.3,2.6c-1.1,0.7-2.3,1-3.8,1c-1.4,0-2.7-0.3-3.8-1s-2-1.6-2.6-2.8
						c-0.6-1.2-0.9-2.6-0.9-4.1S139.6,18.4,140.2,17.2z M151.9,18.1c-0.5-0.9-1.2-1.7-2.1-2.2s-1.8-0.8-2.9-0.8
						c-1.1,0-2.1,0.2-2.9,0.7s-1.5,1.2-2,2.1c-0.5,0.9-0.7,2-0.7,3.3c0,1.3,0.2,2.3,0.7,3.3c0.5,0.9,1.2,1.7,2,2.2
						c0.9,0.5,1.8,0.7,2.9,0.7c1,0,2-0.3,2.9-0.8s1.6-1.2,2.1-2.2c0.5-0.9,0.8-2,0.8-3.2C152.6,20.1,152.4,19,151.9,18.1z"/>
					<path class="st2" d="M159,10.4c-0.3-0.3-0.4-0.6-0.4-1c0-0.4,0.1-0.8,0.4-1c0.3-0.3,0.6-0.4,1-0.4s0.7,0.1,1,0.4
						c0.3,0.3,0.4,0.6,0.4,1c0,0.4-0.1,0.8-0.4,1c-0.3,0.3-0.6,0.4-1,0.4S159.3,10.7,159,10.4z M161,13.7V29h-2V13.7H161z"/>
					<path class="st2" d="M179.3,22.1h-12.7c0.1,1.2,0.3,2.1,0.8,3s1.2,1.4,2,1.9s1.7,0.6,2.7,0.6c1.3,0,2.3-0.3,3.2-0.9
						c0.9-0.6,1.4-1.4,1.7-2.5h2.1c-0.4,1.5-1.2,2.7-2.4,3.7c-1.2,0.9-2.8,1.4-4.6,1.4c-1.4,0-2.7-0.3-3.9-1c-1.1-0.6-2-1.6-2.7-2.7
						c-0.6-1.2-1-2.6-1-4.2c0-1.6,0.3-3,1-4.2c0.6-1.2,1.5-2.1,2.7-2.7s2.4-1,3.9-1s2.7,0.3,3.8,1c1.1,0.6,1.9,1.5,2.5,2.6
						s0.9,2.3,0.9,3.6C179.3,21.2,179.3,21.8,179.3,22.1z M176.6,17.6c-0.5-0.8-1.1-1.4-1.9-1.8s-1.7-0.6-2.7-0.6
						c-1.5,0-2.7,0.5-3.7,1.4s-1.6,2.2-1.7,3.9h10.8C177.3,19.4,177.1,18.4,176.6,17.6z"/>
					<path class="st2" d="M194.5,15.1c1.2,1.1,1.7,2.8,1.7,4.9v9h-1.9v-8.7c0-1.7-0.4-2.9-1.2-3.8c-0.8-0.9-2-1.3-3.4-1.3
						c-1.5,0-2.7,0.5-3.5,1.4c-0.9,0.9-1.3,2.3-1.3,4.1V29h-2V13.7h2v2.6c0.5-0.9,1.2-1.6,2.1-2.1c0.9-0.5,2-0.7,3.1-0.7
						C191.9,13.4,193.4,14,194.5,15.1z"/>
				</g>
			</g>
			<g id="Groupe_293" transform="translate(147.973 17.164)">
				<path id="Tracé_290" class="st2" d="M0,83.5V0"/>
				<path id="Tracé_290_-_Contour" class="st2" d="M0.7,83.5h-1.4V0h1.4V83.5z"/>
			</g>
			<g>
				<defs>
					<rect id="SVGID_1_" x="0" y="1.9" width="449.8" height="113.5"/>
				</defs>
				<clipPath id="SVGID_00000124879421629784858780000011198639323315643822_">
					<use xlink:href="#SVGID_1_"  style="overflow:visible;"/>
				</clipPath>

					<g id="Groupe_298" transform="translate(0 1.902)" style="clip-path:url(#SVGID_00000124879421629784858780000011198639323315643822_);">
					<g id="Groupe_294" transform="translate(144.347 95.165)">
						<path id="Tracé_291" class="st2" d="M7.3,3.6c0-2-1.6-3.6-3.6-3.6C1.6,0,0,1.6,0,3.6c0,2,1.6,3.6,3.6,3.6
							C5.6,7.3,7.3,5.6,7.3,3.6C7.3,3.6,7.3,3.6,7.3,3.6"/>
					</g>
					<g id="Groupe_295" transform="translate(144.347 11.636)">
						<path id="Tracé_292" class="st2" d="M7.3,3.6c0-2-1.6-3.6-3.6-3.6C1.6,0,0,1.6,0,3.6c0,2,1.6,3.6,3.6,3.6
							C5.6,7.3,7.3,5.6,7.3,3.6C7.3,3.6,7.3,3.6,7.3,3.6"/>
					</g>
					<g id="Groupe_296" transform="translate(30.244 25.35)">
						<path id="Tracé_293" class="st2" d="M44,65.9c-0.5,0-0.9-0.3-1-0.7c-0.6-1.8-1.7-3.4-3.1-4.6c-1.4-1.2-3.1-2-4.8-2.5
							c-3.5-0.9-7.2-1.4-10.8-1.4v7.1c4.7,0,9.4,0,12.4-0.1c0.6,0,1.1,0.5,1.1,1.1c0,0.6-0.5,1.1-1.1,1.1l0,0
							c-5.7,0.1-18,0.1-23.9,0c-1.5,0-2.6,0-3.1,0c-0.6,0-1.1-0.5-1.1-1.1l0,0c0-0.6,0.5-1.1,1.1-1.1c0,0,0,0,0,0c0.5,0,1.6,0,3.1,0
							c2.3,0,5.7,0,9.3,0v-7.2c-1.2,0-2.4,0-3.5,0c-2.2,0.1-4.3,0-6.5-0.5c-1.9-0.4-3.2-2.1-3.1-4c0-0.9,0.1-1.8,0.5-2.5
							c0.4-0.7,1-1.3,1.8-1.6c1.3-0.5,3.2-0.6,6.1-0.7c1.4,0,2.9-0.1,4.7-0.2v-6.7c-2.8-0.1-5.6-0.6-8.3-1.5
							c-2.8-0.9-5.4-2.4-7.7-4.2c-2.2-1.7-3.9-3.9-5.2-6.3c-1.3-2.4-1.9-5.1-1.9-7.8c0-0.3,0-0.6,0-0.9c0-0.6,0.5-1,1.1-1h46.3
							c0.6,0,1,0.4,1.1,1c0,0.3,0,0.6,0,0.9c0,2.7-0.7,5.4-1.9,7.8c-1.3,2.4-3.1,4.6-5.2,6.3c-2.3,1.8-4.9,3.3-7.7,4.2
							c-2.7,0.9-5.5,1.4-8.3,1.5v6.5c8.7-0.7,16.8-3.6,22.9-8c6.8-5,10.6-11.6,11.1-19.1c0.3-3-0.1-5.9-1.1-8.7
							c-0.8-2.1-2.1-4-3.8-5.5c-3.5-3-9-4.5-16.2-4.4c-4.8,0.1-9.6,0.7-14.3,1.7C23.1,3.9,23,5,22.6,6c-0.7,1.8-1.8,3.3-3.2,4.7
							c-1.3,1.4-2.9,2.4-4.7,3.2c-1.8,0.7-3.3,0.5-4.3-0.4c-0.9-0.9-1.1-2.4-0.4-4.3c0.7-1.8,1.8-3.3,3.2-4.7l0,0
							c1.3-1.4,2.9-2.4,4.7-3.2c1-0.4,2.1-0.5,3.1-0.3c5.3-1.3,10.7-2,16.1-2.1c7.7-0.1,13.7,1.6,17.6,4.9c4.2,3.5,6.1,8.9,5.6,16
							c-0.2,4.2-1.5,8.2-3.6,11.8c-2.1,3.5-5,6.6-8.3,9c-6.4,4.7-15,7.7-24.1,8.5v5.3c3.9,0,7.7,0.5,11.5,1.5c2,0.6,3.9,1.6,5.6,2.9
							c1.7,1.5,3,3.4,3.7,5.6c0.2,0.6-0.1,1.2-0.7,1.4C44.2,65.8,44.1,65.9,44,65.9z M22.1,49.2c-1.8,0.1-3.3,0.1-4.6,0.2
							c-1.8-0.1-3.6,0.1-5.3,0.5c-0.5,0.2-1,0.5-1,2.1c0,1.1,0.4,1.6,1.6,1.9c1.9,0.4,3.9,0.5,5.9,0.4c1.1,0,2.2,0,3.5,0L22.1,49.2z
							 M1.1,20.7c0.1,9.7,10,17.5,22.1,17.5s21.9-7.8,22.1-17.5L1.1,20.7z M19.9,3c-0.4,0-0.8,0.1-1.2,0.3c-1.5,0.6-2.8,1.5-3.9,2.7
							l0,0c-1.1,1.1-2,2.4-2.7,3.9c-0.3,0.9-0.4,1.7-0.1,2c0.3,0.3,1.1,0.3,2-0.1c1.5-0.6,2.8-1.5,3.9-2.7c1.1-1.1,2-2.4,2.7-3.9
							c0.3-0.6,0.4-1.3,0.1-1.9C20.4,3.3,20.1,3.2,19.9,3z"/>
					</g>
					<g id="Groupe_297" transform="translate(1.421 1.939)">
						<path id="Tracé_294" class="st2" d="M55.1,111.2c-7.5,0-14.9-1.5-21.9-4.4c-3.3-1.4-6.5-3.1-9.5-5.2c-3-2-5.8-4.3-8.3-6.9
							c-2.5-2.5-4.8-5.3-6.9-8.3c-2-3-3.8-6.2-5.2-9.5C0.4,70-1.1,62.6-1.1,55.1c0-7.5,1.5-14.9,4.4-21.9c1.4-3.3,3.1-6.5,5.2-9.5
							c2-3,4.3-5.8,6.9-8.3c2.5-2.5,5.3-4.8,8.3-6.9c3-2,6.2-3.8,9.5-5.2c6.9-2.9,14.4-4.4,21.9-4.4c6.1,0,12.2,1,18,3
							c5.6,1.9,10.9,4.7,15.6,8.2l-1.3,1.7c-4.6-3.4-9.6-6.1-15-7.9C66.8,2,61,1.1,55.1,1.1c-7.2,0-14.4,1.4-21,4.2
							c-3.2,1.4-6.3,3-9.2,5c-2.9,1.9-5.5,4.2-8,6.6c-2.4,2.4-4.7,5.1-6.6,8c-2,2.9-3.6,6-5,9.2c-2.8,6.7-4.3,13.8-4.2,21
							c0,7.2,1.4,14.4,4.2,21c1.4,3.2,3,6.3,5,9.2c1.9,2.9,4.2,5.5,6.6,8c2.4,2.4,5.1,4.7,8,6.6c2.9,2,6,3.6,9.2,5
							c6.7,2.8,13.8,4.3,21,4.2c7.2,0,14.4-1.4,21-4.2c3.2-1.4,6.3-3,9.2-5c2.9-1.9,5.5-4.2,8-6.6c2.4-2.4,4.7-5.1,6.6-8
							c2-2.9,3.6-6,5-9.2c2.8-6.7,4.3-13.8,4.2-21c0-6.3-1.1-12.5-3.2-18.3l2-0.7c2.2,6.1,3.3,12.6,3.3,19.1
							c0,7.5-1.5,14.9-4.4,21.9c-1.4,3.3-3.1,6.5-5.2,9.5c-2,3-4.3,5.8-6.9,8.3c-2.5,2.5-5.3,4.8-8.3,6.9c-3,2-6.2,3.8-9.5,5.2
							C70,109.8,62.6,111.3,55.1,111.2z"/>
					</g>
				</g>
			</g>
			<g id="Groupe_299" transform="translate(82.226 8.204)">
				<path id="Tracé_296" class="st2" d="M8.2,3.5L11.7,0v11.7H0l3.5-3.5L8.2,3.5z"/>
			</g>
		</g>
	</g>
</g>
</svg>
