<?xml version="1.0" encoding="utf-8"?>
<!-- Generator: Adobe Illustrator 26.0.2, SVG Export Plug-In . SVG Version: 6.00 Build 0)  -->
<svg version="1.1" id="Calque_1" xmlns="http://www.w3.org/2000/svg" xmlns:xlink="http://www.w3.org/1999/xlink" x="0px" y="0px"
	 viewBox="0 0 525 145" style="enable-background:new 0 0 525 145;" xml:space="preserve">
<style type="text/css">
	.st0{fill:#779446;}
	.st1{enable-background:new    ;}
	.st2{fill:#779446;}
	.st3{fill:#779446;stroke:#779446;stroke-width:1.372;}
	.st4{fill:none;}
</style>
<g id="Groupe_1423" transform="translate(-150 -1043.469)">
	<g id="Groupe" transform="translate(362 1067.183)">
		<g class="st1">
			<path class="st2" d="M20.2,45l-7-12.7h-2V45H3V11.3h13.8c2.7,0,4.9,0.5,6.8,1.4s3.3,2.2,4.2,3.8c0.9,1.6,1.4,3.4,1.4,5.4
				c0,2.2-0.6,4.2-1.9,6c-1.3,1.8-3.1,3-5.6,3.7L29.4,45H20.2z M11.2,26.5h5.1c1.5,0,2.6-0.4,3.4-1.1s1.1-1.8,1.1-3.1
				c0-1.3-0.4-2.3-1.1-3c-0.8-0.7-1.9-1.1-3.4-1.1h-5.1V26.5z"/>
			<path class="st2" d="M58.8,33.6H40.3c0.1,1.7,0.7,2.9,1.6,3.8c0.9,0.9,2.1,1.3,3.5,1.3c2,0,3.5-0.9,4.3-2.6h8.7
				c-0.4,1.8-1.3,3.3-2.4,4.8s-2.6,2.5-4.4,3.3c-1.8,0.8-3.7,1.2-5.9,1.2c-2.6,0-5-0.6-7-1.7c-2-1.1-3.6-2.7-4.8-4.8
				c-1.2-2.1-1.7-4.5-1.7-7.3c0-2.8,0.6-5.2,1.7-7.3c1.1-2.1,2.7-3.7,4.8-4.8c2-1.1,4.4-1.7,7.1-1.7c2.6,0,4.9,0.5,6.9,1.6
				c2,1.1,3.6,2.6,4.7,4.7c1.1,2,1.7,4.4,1.7,7.1C59,31.9,58.9,32.7,58.8,33.6z M51.2,11.4l-11.6,4.8v-5.7L51.2,5V11.4z M50.6,29
				c0-1.4-0.5-2.5-1.4-3.4c-1-0.8-2.2-1.2-3.6-1.2c-1.4,0-2.5,0.4-3.5,1.2c-0.9,0.8-1.5,1.9-1.8,3.4H50.6z"/>
			<path class="st2" d="M89.2,18.2V45H81v-3.6c-0.8,1.2-2,2.1-3.4,2.9c-1.4,0.7-3,1.1-4.7,1.1c-2,0-3.9-0.5-5.4-1.4
				c-1.6-0.9-2.8-2.2-3.6-4c-0.9-1.7-1.3-3.8-1.3-6.1V18.2h8.2v14.5c0,1.8,0.5,3.2,1.4,4.2c0.9,1,2.2,1.5,3.7,1.5
				c1.6,0,2.9-0.5,3.8-1.5c0.9-1,1.4-2.4,1.4-4.2V18.2H89.2z"/>
			<path class="st2" d="M99.3,44.2c-1.8-0.8-3.3-1.9-4.3-3.3c-1.1-1.4-1.6-3-1.8-4.7h8.1c0.1,0.9,0.5,1.7,1.3,2.3
				c0.8,0.6,1.7,0.9,2.8,0.9c1,0,1.8-0.2,2.4-0.6c0.6-0.4,0.8-0.9,0.8-1.6c0-0.8-0.4-1.3-1.2-1.7c-0.8-0.4-2.1-0.8-3.9-1.2
				c-1.9-0.4-3.5-0.9-4.8-1.4c-1.3-0.5-2.4-1.3-3.3-2.4C94.5,29.4,94,28,94,26.1c0-1.5,0.4-2.9,1.3-4.2c0.8-1.3,2.1-2.3,3.7-3
				c1.6-0.7,3.6-1.1,5.9-1.1c3.4,0,6,0.8,7.9,2.5s3,3.9,3.3,6.6h-7.6c-0.1-0.9-0.5-1.7-1.2-2.2c-0.7-0.5-1.6-0.8-2.7-0.8
				c-1,0-1.7,0.2-2.2,0.6c-0.5,0.4-0.8,0.9-0.8,1.5c0,0.8,0.4,1.3,1.2,1.7s2.1,0.8,3.8,1.2c2,0.5,3.6,1,4.8,1.5
				c1.2,0.5,2.3,1.3,3.3,2.4c0.9,1.1,1.4,2.6,1.5,4.4c0,1.6-0.4,3-1.3,4.2c-0.9,1.2-2.1,2.2-3.8,2.9c-1.6,0.7-3.6,1.1-5.7,1.1
				C103.2,45.4,101.1,45,99.3,44.2z"/>
			<path class="st2" d="M125.5,44.2c-1.8-0.8-3.3-1.9-4.3-3.3c-1.1-1.4-1.6-3-1.8-4.7h8.1c0.1,0.9,0.5,1.7,1.3,2.3
				c0.8,0.6,1.7,0.9,2.8,0.9c1,0,1.8-0.2,2.4-0.6c0.6-0.4,0.8-0.9,0.8-1.6c0-0.8-0.4-1.3-1.2-1.7c-0.8-0.4-2.1-0.8-3.9-1.2
				c-1.9-0.4-3.5-0.9-4.8-1.4c-1.3-0.5-2.4-1.3-3.3-2.4c-0.9-1.1-1.4-2.5-1.4-4.3c0-1.5,0.4-2.9,1.3-4.2c0.8-1.3,2.1-2.3,3.7-3
				c1.6-0.7,3.6-1.1,5.9-1.1c3.4,0,6,0.8,7.9,2.5s3,3.9,3.3,6.6h-7.6c-0.1-0.9-0.5-1.7-1.2-2.2c-0.7-0.5-1.6-0.8-2.7-0.8
				c-1,0-1.7,0.2-2.2,0.6c-0.5,0.4-0.8,0.9-0.8,1.5c0,0.8,0.4,1.3,1.2,1.7s2.1,0.8,3.8,1.2c2,0.5,3.6,1,4.8,1.5
				c1.2,0.5,2.3,1.3,3.3,2.4c0.9,1.1,1.4,2.6,1.5,4.4c0,1.6-0.4,3-1.3,4.2c-0.9,1.2-2.1,2.2-3.8,2.9c-1.6,0.7-3.6,1.1-5.7,1.1
				C129.4,45.4,127.3,45,125.5,44.2z"/>
			<path class="st2" d="M147.7,14.2c-0.9-0.8-1.4-1.9-1.4-3.1c0-1.3,0.5-2.3,1.4-3.2s2.1-1.3,3.5-1.3c1.4,0,2.6,0.4,3.5,1.3
				s1.4,1.9,1.4,3.2c0,1.2-0.5,2.3-1.4,3.1s-2.1,1.3-3.5,1.3C149.8,15.4,148.6,15,147.7,14.2z M155.3,18.2V45h-8.2V18.2H155.3z"/>
			<path class="st2" d="M172.6,19.2c1.4-0.8,3-1.3,4.8-1.3v8.7h-2.3c-2,0-3.6,0.4-4.6,1.3c-1,0.9-1.5,2.4-1.5,4.6V45h-8.2V18.2h8.2
				v4.5C169.9,21.2,171.1,20,172.6,19.2z"/>
		</g>
	</g>
	<g id="Groupe-2" transform="translate(362 1129.626)">
		<g class="st1">
			<path class="st2" d="M22.7,4.9V25h-2.6V10l-6.7,15h-1.9L4.9,10v15H2.2V4.9h2.8l7.4,16.6l7.4-16.6H22.7z"/>
			<path class="st2" d="M41,18H28.3c0.1,1.6,0.6,2.8,1.6,3.7c1,0.9,2.2,1.3,3.6,1.3c1.1,0,2.1-0.3,2.9-0.8c0.8-0.5,1.3-1.2,1.6-2.1
				h2.8c-0.4,1.5-1.3,2.8-2.6,3.7c-1.3,1-2.9,1.4-4.8,1.4c-1.5,0-2.9-0.3-4-1s-2.1-1.6-2.8-2.9c-0.7-1.2-1-2.7-1-4.3s0.3-3.1,1-4.3
				s1.6-2.2,2.8-2.9s2.6-1,4.1-1c1.5,0,2.8,0.3,4,1c1.2,0.7,2.1,1.6,2.7,2.7c0.6,1.2,0.9,2.5,0.9,3.9C41.1,16.9,41,17.5,41,18z
				 M37.7,13.3c-0.4-0.7-1-1.3-1.8-1.7s-1.6-0.6-2.5-0.6c-1.3,0-2.5,0.4-3.4,1.3c-0.9,0.9-1.5,2-1.6,3.5h10
				C38.3,14.9,38.1,14,37.7,13.3z"/>
			<path class="st2" d="M46.3,24.6c-1-0.4-1.7-1-2.3-1.7c-0.6-0.7-0.9-1.6-0.9-2.6h2.7c0.1,0.8,0.4,1.4,1.1,1.9s1.5,0.8,2.6,0.8
				c1,0,1.8-0.2,2.4-0.7c0.6-0.4,0.9-1,0.9-1.7c0-0.7-0.3-1.2-0.9-1.6c-0.6-0.3-1.6-0.7-2.9-1c-1.2-0.3-2.1-0.6-2.9-0.9
				c-0.7-0.3-1.4-0.8-1.9-1.4c-0.5-0.6-0.8-1.5-0.8-2.5c0-0.8,0.2-1.6,0.7-2.2c0.5-0.7,1.2-1.2,2.1-1.6C47,9,48,8.8,49.2,8.8
				c1.8,0,3.2,0.4,4.3,1.3c1.1,0.9,1.7,2.1,1.7,3.7h-2.6c-0.1-0.8-0.4-1.5-1-2c-0.6-0.5-1.4-0.8-2.5-0.8c-0.9,0-1.7,0.2-2.3,0.6
				c-0.6,0.4-0.8,0.9-0.8,1.6c0,0.5,0.2,1,0.5,1.3c0.3,0.3,0.8,0.6,1.3,0.8c0.5,0.2,1.2,0.4,2.1,0.7c1.1,0.3,2.1,0.6,2.8,0.9
				c0.7,0.3,1.3,0.8,1.8,1.3c0.5,0.6,0.8,1.4,0.8,2.3c0,0.9-0.2,1.7-0.7,2.3c-0.5,0.7-1.2,1.2-2,1.6c-0.9,0.4-1.9,0.6-3,0.6
				C48.3,25.3,47.2,25.1,46.3,24.6z"/>
			<path class="st2" d="M70.5,9.8c1-0.6,2.2-0.9,3.6-0.9c1.4,0,2.7,0.3,3.8,1c1.1,0.7,2.1,1.6,2.7,2.9c0.7,1.2,1,2.7,1,4.3
				c0,1.6-0.3,3-1,4.3c-0.7,1.3-1.6,2.2-2.7,2.9c-1.2,0.7-2.4,1-3.8,1c-1.4,0-2.5-0.3-3.6-0.9c-1-0.6-1.8-1.4-2.4-2.3v10.5h-2.6V9.1
				h2.6V12C68.7,11.1,69.4,10.4,70.5,9.8z M78.2,13.9c-0.5-0.9-1.1-1.6-2-2s-1.7-0.7-2.7-0.7c-1,0-1.9,0.2-2.7,0.7
				c-0.8,0.5-1.5,1.2-2,2.1c-0.5,0.9-0.7,1.9-0.7,3.1c0,1.2,0.2,2.2,0.7,3.1c0.5,0.9,1.2,1.6,2,2.1c0.8,0.5,1.7,0.7,2.7,0.7
				c1,0,1.9-0.2,2.7-0.7s1.5-1.2,2-2.1c0.5-0.9,0.7-2,0.7-3.2C78.9,15.8,78.7,14.8,78.2,13.9z"/>
			<path class="st2" d="M89.1,9.6C90,9.1,91,8.8,92.2,8.8v2.7h-0.7c-3,0-4.4,1.6-4.4,4.8V25h-2.6V9.1h2.6v2.6
				C87.6,10.8,88.2,10.1,89.1,9.6z"/>
			<path class="st2" d="M97.5,24.2c-1.2-0.7-2.2-1.6-2.8-2.9s-1-2.7-1-4.3c0-1.6,0.4-3.1,1.1-4.3s1.7-2.2,2.9-2.9
				c1.2-0.7,2.6-1,4.1-1c1.5,0,2.9,0.3,4.1,1c1.2,0.7,2.2,1.6,2.9,2.9c0.7,1.2,1.1,2.7,1.1,4.3s-0.4,3.1-1.1,4.3s-1.7,2.2-2.9,2.9
				s-2.6,1-4.1,1C100.1,25.3,98.7,24.9,97.5,24.2z M104.3,22.3c0.8-0.4,1.5-1.1,2-2c0.5-0.9,0.8-2,0.8-3.2c0-1.3-0.3-2.4-0.8-3.2
				c-0.5-0.9-1.2-1.6-2-2c-0.8-0.4-1.7-0.7-2.6-0.7c-1,0-1.9,0.2-2.7,0.7c-0.8,0.4-1.4,1.1-1.9,2c-0.5,0.9-0.7,2-0.7,3.2
				c0,1.3,0.2,2.4,0.7,3.3c0.5,0.9,1.1,1.6,1.9,2c0.8,0.4,1.7,0.7,2.6,0.7S103.4,22.7,104.3,22.3z"/>
			<path class="st2" d="M115.3,28.5c0,1.4-0.4,2.4-1.1,3.1c-0.7,0.7-1.8,1-3.1,1h-1.5v-2.2h1.1c0.7,0,1.3-0.1,1.6-0.4
				c0.3-0.3,0.4-0.8,0.4-1.5V9.1h2.6V28.5z M112.7,6c-0.3-0.3-0.5-0.8-0.5-1.3c0-0.5,0.2-0.9,0.5-1.3s0.8-0.5,1.3-0.5
				c0.5,0,0.9,0.2,1.3,0.5c0.3,0.3,0.5,0.8,0.5,1.3c0,0.5-0.2,0.9-0.5,1.3c-0.3,0.3-0.8,0.5-1.3,0.5C113.5,6.5,113.1,6.4,112.7,6z"
				/>
			<path class="st2" d="M133.5,18h-12.7c0.1,1.6,0.6,2.8,1.6,3.7c1,0.9,2.2,1.3,3.6,1.3c1.1,0,2.1-0.3,2.9-0.8
				c0.8-0.5,1.3-1.2,1.6-2.1h2.8c-0.4,1.5-1.3,2.8-2.6,3.7c-1.3,1-2.9,1.4-4.8,1.4c-1.5,0-2.9-0.3-4-1s-2.1-1.6-2.8-2.9
				c-0.7-1.2-1-2.7-1-4.3s0.3-3.1,1-4.3c0.7-1.2,1.6-2.2,2.8-2.9c1.2-0.7,2.6-1,4.1-1c1.5,0,2.8,0.3,4,1s2.1,1.6,2.7,2.7
				c0.6,1.2,0.9,2.5,0.9,3.9C133.6,16.9,133.6,17.5,133.5,18z M130.2,13.3c-0.4-0.7-1-1.3-1.8-1.7s-1.6-0.6-2.5-0.6
				c-1.3,0-2.5,0.4-3.4,1.3c-0.9,0.9-1.5,2-1.6,3.5h10C130.9,14.9,130.7,14,130.2,13.3z"/>
			<path class="st2" d="M139.7,11.3v9.4c0,0.8,0.2,1.3,0.5,1.6c0.3,0.3,0.9,0.5,1.7,0.5h1.9V25h-2.4c-1.5,0-2.6-0.3-3.3-1
				s-1.1-1.8-1.1-3.3v-9.4H135V9.1h2.1v-4h2.6v4h4.1v2.2H139.7z"/>
			<path class="st2" d="M148.7,24.6c-1-0.4-1.7-1-2.3-1.7c-0.6-0.7-0.9-1.6-0.9-2.6h2.7c0.1,0.8,0.4,1.4,1.1,1.9
				c0.7,0.5,1.5,0.8,2.6,0.8c1,0,1.8-0.2,2.4-0.7c0.6-0.4,0.9-1,0.9-1.7c0-0.7-0.3-1.2-0.9-1.6c-0.6-0.3-1.6-0.7-2.9-1
				c-1.2-0.3-2.1-0.6-2.9-0.9s-1.4-0.8-1.9-1.4c-0.5-0.6-0.8-1.5-0.8-2.5c0-0.8,0.2-1.6,0.7-2.2c0.5-0.7,1.2-1.2,2.1-1.6
				c0.9-0.4,1.9-0.6,3-0.6c1.8,0,3.2,0.4,4.3,1.3c1.1,0.9,1.7,2.1,1.7,3.7H155c-0.1-0.8-0.4-1.5-1-2c-0.6-0.5-1.4-0.8-2.5-0.8
				c-0.9,0-1.7,0.2-2.3,0.6c-0.6,0.4-0.8,0.9-0.8,1.6c0,0.5,0.2,1,0.5,1.3c0.3,0.3,0.8,0.6,1.3,0.8c0.5,0.2,1.2,0.4,2.1,0.7
				c1.1,0.3,2.1,0.6,2.8,0.9c0.7,0.3,1.3,0.8,1.8,1.3c0.5,0.6,0.8,1.4,0.8,2.3c0,0.9-0.2,1.7-0.7,2.3c-0.5,0.7-1.2,1.2-2,1.6
				c-0.9,0.4-1.9,0.6-3,0.6C150.8,25.3,149.7,25.1,148.7,24.6z"/>
		</g>
	</g>
	<g id="Groupe_1239" transform="translate(-16 -121.531)">
		<path id="Tracé_303" class="st3" d="M340,1280.6V1197"/>
		<g id="Groupe_309" transform="translate(336.403 1281.936)">
			<path id="Tracé_304" class="st2" d="M7.3-1.4c0-2-1.6-3.6-3.6-3.6C1.6-5,0-3.4,0-1.4c0,2,1.6,3.6,3.6,3.6
				C5.6,2.3,7.3,0.6,7.3-1.4C7.3-1.4,7.3-1.4,7.3-1.4"/>
		</g>
		<g id="Groupe_310" transform="translate(336.403 1198.407)">
			<path id="Tracé_305" class="st2" d="M7.3-1.4c0-2-1.6-3.6-3.6-3.6C1.6-5,0-3.4,0-1.4c0,2,1.6,3.6,3.6,3.6
				C5.6,2.3,7.3,0.6,7.3-1.4C7.3-1.4,7.3-1.4,7.3-1.4"/>
		</g>
	</g>
	<g id="Groupe_311" transform="translate(175.001 1092.483)">
		<path id="Tracé_306" class="st2" d="M47.9,59.6l0.2,0.3c0.5,0.7,1.1,1.4,1.8,1.9c1.2,0.9,2.7,1.5,4.3,1.5c1.2,0,2.3-0.4,3.1-1.3
			l0,0c0.4-0.4,0.8-0.9,1.1-1.4l0.2-0.3l1.6,0.9c1.3,0.8,2.7,1.2,4.2,1.2c2.1,0.1,4.1-0.8,5.5-2.5c0.3-0.4,0.5-0.9,0.6-1.3l0.1-0.3
			l0.3,0c2.2,0.3,4.4-0.4,6-2c0.6-0.7,1.1-1.5,1.3-2.4l0.1-0.3l0.3,0.1c2.4,0.4,4.8-0.4,6.5-2.1c1.3-1.2,2-2.9,2-4.7l0-0.4l0.4,0
			c0.6,0,1.2-0.1,1.8-0.2c1.5-0.5,2.9-1.4,3.9-2.6c1.2-1.3,1.8-3,1.7-4.7c0-0.3-0.1-0.5-0.1-0.8l-0.1-0.4l4.7-0.7l0.5,5.3
			c0.1,0.8,0.5,1.6,1.2,2.1c0.8,0.6,1.7,0.9,2.7,0.9c0.2,0,0.3,0,0.5,0l8.4-0.9c2.2-0.2,3.8-1.9,3.6-3.8l-4-42.6
			c-0.1-0.8-0.5-1.6-1.2-2.1c-0.9-0.7-2-1-3.2-0.9l-8.4,0.9c-2.2,0.2-3.8,1.9-3.6,3.8l0.4,4l-8.8,0.6c-1.5,0-2.9-0.2-4.3-0.8
			c-0.2-0.1-0.5-0.2-0.7-0.3h0L68.7-2.1l0,0c-1.6-0.8-3.5-1.3-5.3-1.3l-5.2,0c-2.1,0-4.2,0.6-5.9,1.9L50.1,0l-0.1,0L32.3,5.1
			c-1,0.3-2.1,0.4-3.1,0.2l-7.1-0.9l0.6-4c0.3-1.9-1.2-3.6-3.4-4L11-4.9C9.8-5.1,8.7-4.9,7.7-4.2C7.1-3.7,6.6-3,6.5-2.1L0,40.2
			c-0.3,1.9,1.2,3.6,3.4,4l8.3,1.3c0.2,0,0.5,0.1,0.8,0.1c0.9,0,1.8-0.3,2.5-0.8c0.7-0.5,1.2-1.2,1.3-2.1l0.6-4.1l6.3,0.9L23,39.9
			c-0.2,0.6-0.3,1.3-0.2,2c0.5,2.2,2.1,4,4.2,4.8c0.6,0.2,1.1,0.4,1.7,0.4l0.3,0l0,0.3c0,0.6,0,1.2,0.2,1.7c0.8,2.6,2.9,4.7,5.6,5.4
			c0.5,0.1,1,0.2,1.5,0.2c0.1,0,0.2,0,0.3,0l0.3,0l0.1,0.3c0,0.1,0,0.1,0,0.2c0.6,2.3,3.1,4.5,6,5.2c0.5,0.1,1.1,0.2,1.7,0.2
			c1,0,1.9-0.3,2.8-0.8L47.9,59.6z M54.1,60.7c-1-0.1-1.9-0.4-2.7-1c-0.2-0.1-2-1.5-1.3-2.7l0,0l3.9-4.8l3.1-3.7
			c0.6-0.8,1.7-0.4,2.5,0.2c0.9,0.6,2,2,1.3,3.2l0,0c-2,3.1-4.4,6.7-5.3,7.8l-0.1,0.1l-0.1,0l-0.3,0.4C55,60.6,54.5,60.7,54.1,60.7
			 M64.3,59.7c-1,0-2-0.3-2.8-0.8L60,58.1l0.4-0.6c0.4-0.7,0.9-1.4,1.4-2.1c0.3-0.5,0.6-0.9,0.8-1.3l0.2-0.3l4.6,3.2
			c0.6,0.6,0.5,1,0.2,1.4c-0.6,0.7-1.5,1.2-2.4,1.3C64.9,59.7,64.6,59.7,64.3,59.7 M44.8,57.9c-0.3,0-0.7-0.1-1-0.1l0,0
			c-2-0.5-3.8-2.2-4.1-3.3c-0.1-0.3,0-0.7,0.3-0.9c0.2-0.2,1.3-1.4,5.7-6.4c1.4-1.6,2.2-2.5,2.5-2.8l0,0c1.1-1.3,2.1-2.4,2.7-3.1
			l0,0c0.6-0.5,1.4-0.7,2.1-0.4c0.8,0.2,1.6,0.6,2.2,1.1c0.2,0.2,2.2,1.9,1,3.5l0,0L52,50.5l-3.9,4.7l-0.1,0.1l0,0l0,0l0,0l-1.6,1.9
			C46,57.8,45.4,58,44.8,57.9 M71.7,55.7c-0.9,0-1.8-0.3-2.6-0.7l0,0l-0.3-0.2l0,0l0,0l-5.1-3.4l0-0.2c0.1-0.6,0-1.2-0.3-1.7
			c-0.5-1.1-1.3-2.1-2.3-2.8c-0.5-0.4-1.2-0.7-1.8-0.9l-0.3-0.1l0.1-0.3c0.1-0.7,0.1-1.4-0.1-2.1c-0.4-1.2-1.1-2.3-2.1-3.2
			c-1.1-0.9-2.4-1.6-3.8-1.8c-1.2-0.2-2.5,0.1-3.5,0.8l-0.4,0.3L49,38.8c-0.3-0.9-0.9-1.8-1.6-2.4c-1-1-2.3-1.6-3.7-1.7
			c-1.2-0.1-2.4,0.1-3.4,0.8L40,35.6l-0.1-0.4c-0.2-0.5-0.5-1-0.8-1.5c-1.7-2.5-5.1-3.1-7.6-1.3c0,0-0.1,0-0.1,0.1l0,0l-5.8,4.7
			L17.3,36l4.4-29l7.8,1c0.9,0.1,1.9,0,2.8-0.2l11.3-3.2l-0.6,0.8c-0.2,0.3-0.4,0.6-0.6,0.9l-4.8,9.6c-0.7,1.3-0.6,2.9,0.1,4.1
			c1,1.8,2.9,2.8,5,2.9h0c2.8,0,5.4-1,7.5-2.8l0.1-0.1c1.4-1.5,2.8-3.1,3.9-4.8c0.2-0.3,0.5-0.5,0.9-0.6l4.4-1.3
			c0.3-0.1,0.6-0.1,0.9,0l0.8,0.3c0.8,0.3,1.5,0.7,2.1,1.2l26.3,21c1.5,1.2,2.4,2.4,2.5,3.4c0,1.1-0.4,2.1-1.1,2.8l-0.3-0.2l0.3,0.2
			c-1.2,1.5-3.2,2.6-5.4,1.4l0,0L72,33.6c-0.6-0.4-1.4-0.3-1.8,0.3c-0.2,0.3-0.3,0.6-0.2,1c0.1,0.3,0.2,0.7,0.5,0.9l13.4,9.6l0,0.1
			c0.7,1.4,0.4,3.1-0.8,4.2c-1.7,1.6-4.3,1.9-6.2,0.6l0,0L64,41.1c-0.3-0.2-0.6-0.3-1-0.2c-0.3,0.1-0.6,0.3-0.8,0.5
			c-0.2,0.3-0.3,0.6-0.2,1c0.1,0.3,0.3,0.6,0.5,0.8l12.8,8.9l0,0.1c0.4,0.7,0.2,1.6-0.4,2.1C74,55.2,72.9,55.7,71.7,55.7 M36.5,52.1
			c-0.3,0-0.6,0-0.9-0.1l0,0c-1.7-0.5-3.1-1.8-3.7-3.5c-0.3-1.1,0.1-2.3,1-3l0,0c0,0,0.1-0.1,0.2-0.2l0,0c1.7-1.5,4.8-4.2,5.4-4.7
			l0,0c0.2-0.2,0.4-0.3,0.5-0.5l0,0c0.8-0.7,1.6-1.4,2.2-2l0,0c0.6-0.5,1.5-0.8,2.3-0.7c0.8,0.1,1.5,0.5,2,1c0.6,0.5,1,1.2,1.1,1.9
			c0.2,0.9-0.1,1.8-0.6,2.5l0,0c-0.8,0.9-1.7,1.9-2.5,2.8c-1.6,1.8-3.7,4.1-5,5.6C38.1,51.7,37.3,52.1,36.5,52.1 M29.2,44.4
			c-0.4,0-0.8-0.1-1.2-0.2c-1.3-0.4-2.2-1.5-2.6-2.7c-0.1-0.5,0.1-1.1,0.6-1.4l6.9-5.5l0,0c1.2-0.9,3-0.7,3.9,0.6
			c0,0,0.1,0.1,0.1,0.1c0.7,0.8,0.8,1.9,0.2,2.8l0,0l0,0c-2,1.8-4.7,4.2-5.7,5.1l0,0c-0.4,0.4-0.7,0.6-0.9,0.8
			C30.1,44.3,29.7,44.4,29.2,44.4 M12.5,42.9c-0.1,0-0.2,0-0.3,0l-8.3-1.3c-0.8-0.1-1.3-0.6-1.2-1L9-1.7c0-0.1,0.1-0.3,0.2-0.3
			c0.4-0.2,0.8-0.3,1.3-0.2L18.8-1c0.8,0.1,1.3,0.6,1.2,1l-6.4,42.3c0,0.1-0.1,0.3-0.2,0.3C13.2,42.8,12.8,42.9,12.5,42.9
			 M103.5,42.7c-0.4,0-0.7-0.1-1-0.3c-0.1-0.1-0.2-0.2-0.2-0.4l-4-42.6c0-0.4,0.5-0.8,1.3-0.9l8.4-0.9c0.4-0.1,0.9,0,1.2,0.3
			c0.1,0.1,0.2,0.2,0.2,0.4l4,42.6c0,0.4-0.5,0.8-1.3,0.9l-8.4,0.9C103.6,42.7,103.6,42.7,103.5,42.7 M108.8-1.5L108.8-1.5 M93,35.3
			l-0.1-0.1c-0.5-0.5-1-1-1.6-1.5L64.4,12.2c-0.5-0.4-1-0.7-1.6-0.9l-2.3-0.8c-0.3-0.1-0.6-0.1-0.8,0l-6.6,2c-0.1,0-0.3,0.1-0.3,0.3
			c-1.2,2-2.5,3.8-4.2,5.4c-1.6,1.4-3.6,2.1-5.7,2.1h0c-1.1,0-2.1-0.6-2.7-1.6c-0.3-0.5-0.3-1.1,0-1.6l4.8-9.6
			c0.3-0.7,0.8-1.2,1.4-1.6l7.5-5.2c1.3-0.9,2.9-1.4,4.4-1.4h0l5.2,0c1.5,0,2.9,0.3,4.3,0.9h0l13.6,5.5l0,0c0.3,0.1,0.5,0.2,0.7,0.3
			c1.7,0.7,3.5,1.1,5.3,1L96,6.3l0,0.3l2.7,27.7L93,35.3z"/>
	</g>
	<path id="Tracé_307" class="st4" d="M175,1164.6h462.6v-101.9H175V1164.6z"/>
</g>
</svg>
