<?xml version="1.0" encoding="utf-8"?>
<!-- Generator: Adobe Illustrator 26.0.2, SVG Export Plug-In . SVG Version: 6.00 Build 0)  -->
<svg version="1.1" id="Calque_1" xmlns="http://www.w3.org/2000/svg" xmlns:xlink="http://www.w3.org/1999/xlink" x="0px" y="0px"
	 viewBox="0 0 525 145" style="enable-background:new 0 0 525 145;" xml:space="preserve">
<style type="text/css">
	.st0{fill:#009ba4;}
	.st1{fill:#009ba4;stroke:#009ba4;stroke-width:1.372;}
	.st2{fill:#009ba4;}
	.st3{enable-background:new;}
	.st4{fill:none;stroke:#009ba4;stroke-width:2.105;stroke-linecap:round;stroke-linejoin:round;stroke-miterlimit:22.926;}
</style>
<g id="Groupe_1424" transform="translate(-691 -1043.469)">
	<g>
		<defs>
			<rect id="SVGID_1_" x="713.9" y="1057.7" width="512.6" height="114.9"/>
		</defs>
		<clipPath id="SVGID_00000041288890722554818760000005689367056212671908_">
			<use xlink:href="#SVGID_1_"  style="overflow:visible;"/>
		</clipPath>
	</g>
	<g id="Groupe_316" transform="translate(863.029 1070.545)">
		<path id="Tracé_310" class="st1" d="M0,83.5V0"/>
	</g>
	<g id="Groupe_317" transform="translate(856.403 1150.447)">
		<path id="Tracé_311" class="st2" d="M10.3,3.6c0-2-1.6-3.6-3.6-3.6C4.6,0,3,1.6,3,3.6c0,2,1.6,3.6,3.6,3.6
			C8.6,7.3,10.3,5.6,10.3,3.6C10.3,3.6,10.3,3.6,10.3,3.6"/>
	</g>
	<g id="Groupe_318" transform="translate(859.403 1066.919)">
		<path id="Tracé_312" class="st2" d="M7.3,3.6c0-2-1.6-3.6-3.6-3.6C1.6,0,0,1.6,0,3.6c0,2,1.6,3.6,3.6,3.6
			C5.6,7.3,7.3,5.6,7.3,3.6C7.3,3.6,7.3,3.6,7.3,3.6"/>
	</g>
	<g id="Groupe" transform="translate(900.569 1056.842)">
		<g class="st3">
			<path class="st2" d="M25.4,18.8c2.7,1.4,4.8,3.5,6.3,6.1c1.5,2.6,2.2,5.6,2.2,9c0,3.4-0.7,6.4-2.2,9c-1.5,2.6-3.6,4.6-6.3,6.1
				c-2.7,1.4-5.9,2.2-9.5,2.2H3V16.6h12.9C19.6,16.6,22.7,17.3,25.4,18.8z M22.8,41.2c1.8-1.7,2.6-4.2,2.6-7.4
				c0-3.2-0.9-5.6-2.6-7.4c-1.8-1.8-4.2-2.6-7.4-2.6h-4v20h4C18.6,43.7,21,42.9,22.8,41.2z"/>
			<path class="st2" d="M64.1,39.3h-19c0.1,1.7,0.7,3,1.6,3.9c1,0.9,2.1,1.3,3.6,1.3c2.1,0,3.5-0.9,4.4-2.6h8.9
				c-0.5,1.8-1.3,3.4-2.5,4.9c-1.2,1.4-2.7,2.6-4.5,3.4c-1.8,0.8-3.8,1.2-6,1.2c-2.7,0-5.1-0.6-7.2-1.7c-2.1-1.1-3.7-2.8-4.9-4.9
				c-1.2-2.1-1.8-4.6-1.8-7.4s0.6-5.3,1.7-7.4c1.2-2.1,2.8-3.8,4.9-4.9c2.1-1.1,4.5-1.7,7.2-1.7c2.6,0,5,0.6,7.1,1.7
				c2.1,1.1,3.7,2.7,4.8,4.8c1.2,2.1,1.7,4.5,1.7,7.2C64.2,37.7,64.2,38.5,64.1,39.3z M56.3,16.7l-11.8,4.9v-5.8l11.8-5.7V16.7z
				 M55.7,34.7c0-1.4-0.5-2.6-1.5-3.4c-1-0.8-2.2-1.3-3.7-1.3c-1.4,0-2.6,0.4-3.6,1.2c-1,0.8-1.6,2-1.8,3.5H55.7z"/>
			<path class="st2" d="M80.8,43.2l5.9-19.5h8.9L85.9,51H75.6l-9.7-27.3h9L80.8,43.2z"/>
			<path class="st2" d="M124.6,39.3h-19c0.1,1.7,0.7,3,1.6,3.9c1,0.9,2.1,1.3,3.6,1.3c2.1,0,3.5-0.9,4.4-2.6h8.9
				c-0.5,1.8-1.3,3.4-2.5,4.9c-1.2,1.4-2.7,2.6-4.5,3.4c-1.8,0.8-3.8,1.2-6,1.2c-2.7,0-5.1-0.6-7.2-1.7c-2.1-1.1-3.7-2.8-4.9-4.9
				c-1.2-2.1-1.8-4.6-1.8-7.4s0.6-5.3,1.7-7.4c1.2-2.1,2.8-3.8,4.9-4.9c2.1-1.1,4.5-1.7,7.2-1.7c2.6,0,5,0.6,7.1,1.7
				c2.1,1.1,3.7,2.7,4.8,4.8c1.2,2.1,1.7,4.5,1.7,7.2C124.7,37.7,124.7,38.5,124.6,39.3z M116.1,34.7c0-1.4-0.5-2.6-1.5-3.4
				c-1-0.8-2.2-1.3-3.7-1.3c-1.4,0-2.6,0.4-3.6,1.2c-1,0.8-1.6,2-1.8,3.5H116.1z"/>
			<path class="st2" d="M137.3,14.7V51h-8.4V14.7H137.3z"/>
			<path class="st2" d="M148.4,49.7c-2.1-1.1-3.8-2.8-5-4.9c-1.2-2.1-1.8-4.6-1.8-7.4c0-2.8,0.6-5.3,1.9-7.4
				c1.2-2.1,2.9-3.8,5.1-4.9c2.2-1.1,4.6-1.7,7.3-1.7c2.7,0,5.1,0.6,7.3,1.7s3.9,2.8,5.1,4.9c1.2,2.1,1.9,4.6,1.9,7.4
				s-0.6,5.3-1.9,7.4c-1.3,2.1-3,3.8-5.1,4.9c-2.2,1.1-4.6,1.7-7.3,1.7S150.5,50.8,148.4,49.7z M159.7,42.4c1.1-1.2,1.7-2.9,1.7-5
				s-0.5-3.9-1.6-5s-2.4-1.8-4-1.8c-1.6,0-3,0.6-4.1,1.7s-1.6,2.9-1.6,5.1c0,2.2,0.5,3.9,1.6,5s2.4,1.8,4,1.8S158.6,43.6,159.7,42.4
				z"/>
			<path class="st2" d="M186,24.4c1.4-0.8,3.1-1.2,5-1.2c2.3,0,4.3,0.6,6.1,1.7c1.8,1.1,3.3,2.8,4.3,4.9c1.1,2.1,1.6,4.6,1.6,7.4
				s-0.5,5.3-1.6,7.4c-1.1,2.1-2.5,3.8-4.3,4.9c-1.8,1.2-3.9,1.7-6.1,1.7c-1.9,0-3.6-0.4-5-1.2c-1.5-0.8-2.6-1.8-3.4-3V64h-8.4V23.7
				h8.4v3.9C183.4,26.3,184.5,25.2,186,24.4z M192.8,32.4c-1.2-1.2-2.6-1.8-4.3-1.8c-1.7,0-3.1,0.6-4.2,1.8
				c-1.2,1.2-1.7,2.9-1.7,4.9c0,2.1,0.6,3.7,1.7,4.9c1.2,1.2,2.6,1.8,4.2,1.8s3.1-0.6,4.3-1.8c1.2-1.2,1.8-2.9,1.8-5
				S193.9,33.5,192.8,32.4z"/>
			<path class="st2" d="M219,24.4c1.4-0.8,3.1-1.2,5-1.2c2.3,0,4.3,0.6,6.1,1.7c1.8,1.1,3.3,2.8,4.3,4.9c1.1,2.1,1.6,4.6,1.6,7.4
				s-0.5,5.3-1.6,7.4c-1.1,2.1-2.5,3.8-4.3,4.9c-1.8,1.2-3.9,1.7-6.1,1.7c-1.9,0-3.6-0.4-5-1.2c-1.5-0.8-2.6-1.8-3.4-3V64h-8.4V23.7
				h8.4v3.9C216.5,26.3,217.6,25.2,219,24.4z M225.9,32.4c-1.2-1.2-2.6-1.8-4.3-1.8c-1.7,0-3.1,0.6-4.2,1.8
				c-1.2,1.2-1.7,2.9-1.7,4.9c0,2.1,0.6,3.7,1.7,4.9c1.2,1.2,2.6,1.8,4.2,1.8s3.1-0.6,4.3-1.8c1.2-1.2,1.8-2.9,1.8-5
				S227,33.5,225.9,32.4z"/>
			<path class="st2" d="M266,39.3h-19c0.1,1.7,0.7,3,1.6,3.9c1,0.9,2.1,1.3,3.6,1.3c2.1,0,3.5-0.9,4.4-2.6h8.9
				c-0.5,1.8-1.3,3.4-2.5,4.9c-1.2,1.4-2.7,2.6-4.5,3.4c-1.8,0.8-3.8,1.2-6,1.2c-2.7,0-5.1-0.6-7.2-1.7c-2.1-1.1-3.7-2.8-4.9-4.9
				c-1.2-2.1-1.8-4.6-1.8-7.4s0.6-5.3,1.7-7.4c1.2-2.1,2.8-3.8,4.9-4.9c2.1-1.1,4.5-1.7,7.2-1.7c2.6,0,5,0.6,7.1,1.7
				c2.1,1.1,3.7,2.7,4.8,4.8c1.2,2.1,1.7,4.5,1.7,7.2C266.1,37.7,266.1,38.5,266,39.3z M257.5,34.7c0-1.4-0.5-2.6-1.5-3.4
				c-1-0.8-2.2-1.3-3.7-1.3c-1.4,0-2.6,0.4-3.6,1.2c-1,0.8-1.6,2-1.8,3.5H257.5z"/>
			<path class="st2" d="M282.4,24.7c1.5-0.9,3.1-1.3,4.9-1.3v8.9H285c-2.1,0-3.7,0.4-4.7,1.3c-1,0.9-1.6,2.5-1.6,4.7V51h-8.4V23.7
				h8.4v4.6C279.7,26.7,280.9,25.5,282.4,24.7z"/>
		</g>
	</g>
	<g id="Groupe-2" transform="translate(900.569 1120.606)">
		<g class="st3">
			<path class="st2" d="M22,9.6V29h-2.5V14.6L13,29h-1.8L4.7,14.5V29H2.2V9.6h2.7l7.2,16l7.2-16H22z"/>
			<path class="st2" d="M39.8,22.3H27.5c0.1,1.5,0.6,2.7,1.6,3.5c0.9,0.8,2.1,1.3,3.4,1.3c1.1,0,2-0.3,2.8-0.8s1.3-1.2,1.6-2.1h2.7
				c-0.4,1.5-1.2,2.7-2.5,3.6c-1.2,0.9-2.8,1.4-4.6,1.4c-1.5,0-2.8-0.3-3.9-1c-1.1-0.7-2-1.6-2.7-2.8c-0.7-1.2-1-2.6-1-4.2
				c0-1.6,0.3-3,1-4.2c0.6-1.2,1.5-2.1,2.7-2.8c1.1-0.6,2.5-1,4-1c1.5,0,2.7,0.3,3.9,1c1.1,0.6,2,1.5,2.6,2.6
				c0.6,1.1,0.9,2.4,0.9,3.8C39.9,21.2,39.8,21.7,39.8,22.3z M36.6,17.7c-0.4-0.7-1-1.2-1.8-1.6c-0.7-0.4-1.6-0.5-2.4-0.5
				c-1.3,0-2.4,0.4-3.3,1.2c-0.9,0.8-1.4,2-1.6,3.4h9.7C37.2,19.2,37,18.4,36.6,17.7z"/>
			<path class="st2" d="M45.1,28.7c-0.9-0.4-1.7-1-2.2-1.7c-0.5-0.7-0.8-1.5-0.9-2.5h2.6c0.1,0.8,0.4,1.4,1.1,1.9s1.5,0.7,2.5,0.7
				c1,0,1.7-0.2,2.3-0.6s0.8-1,0.8-1.6c0-0.7-0.3-1.2-0.9-1.5c-0.6-0.3-1.5-0.6-2.8-1c-1.1-0.3-2.1-0.6-2.8-0.9
				c-0.7-0.3-1.3-0.8-1.8-1.4c-0.5-0.6-0.8-1.4-0.8-2.4c0-0.8,0.2-1.5,0.7-2.2c0.5-0.7,1.1-1.2,2-1.6c0.9-0.4,1.8-0.6,2.9-0.6
				c1.7,0,3.1,0.4,4.1,1.3c1,0.9,1.6,2,1.7,3.5h-2.5c-0.1-0.8-0.4-1.4-1-1.9c-0.6-0.5-1.4-0.7-2.4-0.7c-0.9,0-1.6,0.2-2.2,0.6
				c-0.5,0.4-0.8,0.9-0.8,1.5c0,0.5,0.2,0.9,0.5,1.2c0.3,0.3,0.7,0.6,1.2,0.8c0.5,0.2,1.2,0.4,2.1,0.7c1.1,0.3,2,0.6,2.7,0.9
				c0.7,0.3,1.3,0.7,1.8,1.3c0.5,0.6,0.8,1.3,0.8,2.3c0,0.8-0.2,1.6-0.7,2.3s-1.1,1.2-2,1.6c-0.8,0.4-1.8,0.6-2.9,0.6
				C47.1,29.3,46,29.1,45.1,28.7z"/>
			<path class="st2" d="M75.5,19.2c-1.1,1.1-2.8,1.6-5.1,1.6h-3.8V29h-2.5V9.5h6.3c2.2,0,3.9,0.5,5,1.6c1.1,1.1,1.7,2.4,1.7,4.1
				C77.2,16.8,76.6,18.2,75.5,19.2z M73.6,17.8c0.7-0.6,1-1.5,1-2.6c0-2.4-1.4-3.6-4.1-3.6h-3.8v7.2h3.8
				C71.9,18.8,72.9,18.4,73.6,17.8z"/>
			<path class="st2" d="M93.9,22.3H81.6c0.1,1.5,0.6,2.7,1.6,3.5c0.9,0.8,2.1,1.3,3.4,1.3c1.1,0,2-0.3,2.8-0.8s1.3-1.2,1.6-2.1h2.7
				c-0.4,1.5-1.2,2.7-2.5,3.6c-1.2,0.9-2.8,1.4-4.6,1.4c-1.5,0-2.8-0.3-3.9-1c-1.1-0.7-2-1.6-2.7-2.8c-0.7-1.2-1-2.6-1-4.2
				c0-1.6,0.3-3,1-4.2c0.6-1.2,1.5-2.1,2.7-2.8c1.1-0.6,2.5-1,4-1c1.5,0,2.7,0.3,3.9,1s2,1.5,2.6,2.6c0.6,1.1,0.9,2.4,0.9,3.8
				C94,21.2,93.9,21.7,93.9,22.3z M90.7,17.7c-0.4-0.7-1-1.2-1.8-1.6c-0.7-0.4-1.6-0.5-2.4-0.5c-1.3,0-2.4,0.4-3.3,1.2
				c-0.9,0.8-1.4,2-1.6,3.4h9.7C91.3,19.2,91.1,18.4,90.7,17.7z"/>
			<path class="st2" d="M101.4,14.1c0.8-0.5,1.8-0.7,3-0.7V16h-0.7c-2.9,0-4.3,1.5-4.3,4.6V29h-2.5V13.7h2.5v2.5
				C99.9,15.3,100.6,14.6,101.4,14.1z"/>
			<path class="st2" d="M113.2,15.8H110V29h-2.5V15.8h-2v-2.1h2v-1.1c0-1.7,0.4-3,1.3-3.8c0.9-0.8,2.3-1.2,4.3-1.2v2.1
				c-1.1,0-1.9,0.2-2.4,0.7c-0.5,0.4-0.7,1.2-0.7,2.2v1.1h3.2V15.8z"/>
			<path class="st2" d="M118.6,28.3c-1.2-0.7-2.1-1.6-2.7-2.8c-0.7-1.2-1-2.6-1-4.2c0-1.6,0.3-3,1-4.2c0.7-1.2,1.6-2.1,2.8-2.8
				c1.2-0.6,2.5-1,3.9-1s2.8,0.3,3.9,1c1.2,0.6,2.1,1.6,2.8,2.8c0.7,1.2,1,2.6,1,4.2c0,1.6-0.3,3-1,4.2s-1.6,2.1-2.8,2.8
				c-1.2,0.7-2.5,1-4,1C121.1,29.3,119.8,28.9,118.6,28.3z M125.1,26.4c0.8-0.4,1.5-1.1,1.9-1.9c0.5-0.9,0.7-1.9,0.7-3.1
				c0-1.2-0.2-2.3-0.7-3.1s-1.1-1.5-1.9-1.9s-1.6-0.6-2.5-0.6c-0.9,0-1.8,0.2-2.6,0.6c-0.8,0.4-1.4,1.1-1.9,1.9s-0.7,1.9-0.7,3.1
				c0,1.3,0.2,2.3,0.7,3.2c0.5,0.9,1.1,1.5,1.8,1.9c0.8,0.4,1.6,0.6,2.5,0.6C123.4,27,124.3,26.8,125.1,26.4z"/>
			<path class="st2" d="M137.8,14.1c0.8-0.5,1.8-0.7,3-0.7V16h-0.7c-2.9,0-4.3,1.5-4.3,4.6V29h-2.5V13.7h2.5v2.5
				C136.3,15.3,137,14.6,137.8,14.1z"/>
			<path class="st2" d="M165,14.1c0.9,0.5,1.7,1.2,2.2,2.2c0.5,1,0.8,2.2,0.8,3.6v9h-2.5v-8.7c0-1.5-0.4-2.7-1.1-3.5
				c-0.8-0.8-1.8-1.2-3.1-1.2c-1.3,0-2.4,0.4-3.2,1.3s-1.2,2.1-1.2,3.7V29h-2.5v-8.7c0-1.5-0.4-2.7-1.1-3.5
				c-0.8-0.8-1.8-1.2-3.1-1.2c-1.3,0-2.4,0.4-3.2,1.3c-0.8,0.8-1.2,2.1-1.2,3.7V29h-2.5V13.7h2.5v2.2c0.5-0.8,1.2-1.4,2-1.8
				c0.8-0.4,1.8-0.6,2.8-0.6c1.3,0,2.4,0.3,3.4,0.9c1,0.6,1.7,1.4,2.2,2.5c0.4-1.1,1.1-1.9,2.1-2.5c1-0.6,2.1-0.9,3.3-0.9
				C163,13.4,164.1,13.6,165,14.1z"/>
			<path class="st2" d="M171.8,17.1c0.6-1.2,1.5-2.1,2.6-2.8c1.1-0.7,2.3-1,3.7-1c1.3,0,2.5,0.3,3.5,0.9c1,0.6,1.7,1.3,2.2,2.2v-2.8
				h2.6V29h-2.6v-2.9c-0.5,0.9-1.3,1.6-2.3,2.2c-1,0.6-2.2,0.9-3.5,0.9c-1.4,0-2.6-0.3-3.7-1s-2-1.6-2.6-2.8c-0.6-1.2-1-2.6-1-4.1
				C170.9,19.7,171.2,18.3,171.8,17.1z M183.2,18.3c-0.5-0.9-1.1-1.5-1.9-2c-0.8-0.5-1.7-0.7-2.6-0.7s-1.8,0.2-2.6,0.7
				c-0.8,0.4-1.4,1.1-1.9,2s-0.7,1.9-0.7,3c0,1.2,0.2,2.2,0.7,3.1s1.1,1.5,1.9,2c0.8,0.5,1.7,0.7,2.6,0.7s1.8-0.2,2.6-0.7
				c0.8-0.5,1.4-1.1,1.9-2s0.7-1.9,0.7-3C183.9,20.1,183.6,19.1,183.2,18.3z"/>
			<path class="st2" d="M202.4,15.1c1.2,1.1,1.7,2.8,1.7,4.9v9h-2.5v-8.7c0-1.5-0.4-2.7-1.1-3.5c-0.8-0.8-1.8-1.2-3.1-1.2
				c-1.3,0-2.4,0.4-3.2,1.3c-0.8,0.8-1.2,2.1-1.2,3.7V29h-2.5V13.7h2.5v2.2c0.5-0.8,1.2-1.4,2.1-1.8c0.9-0.4,1.8-0.6,2.9-0.6
				C199.7,13.4,201.2,13.9,202.4,15.1z"/>
			<path class="st2" d="M207.9,17.1c0.6-1.2,1.5-2.1,2.6-2.8c1.1-0.7,2.4-1,3.9-1c1.9,0,3.4,0.5,4.7,1.4c1.2,0.9,2,2.2,2.4,3.8h-2.7
				c-0.3-0.9-0.8-1.7-1.5-2.2c-0.8-0.5-1.7-0.8-2.8-0.8c-1.5,0-2.6,0.5-3.5,1.5c-0.9,1-1.3,2.4-1.3,4.2c0,1.8,0.4,3.3,1.3,4.3
				c0.9,1,2.1,1.5,3.5,1.5c1.1,0,2.1-0.3,2.8-0.8c0.7-0.5,1.3-1.3,1.5-2.2h2.7c-0.4,1.6-1.2,2.8-2.5,3.8c-1.2,0.9-2.8,1.4-4.6,1.4
				c-1.5,0-2.7-0.3-3.9-1c-1.1-0.7-2-1.6-2.6-2.8s-1-2.6-1-4.2C206.9,19.7,207.3,18.3,207.9,17.1z"/>
			<path class="st2" d="M238.4,22.3h-12.3c0.1,1.5,0.6,2.7,1.6,3.5s2.1,1.3,3.4,1.3c1.1,0,2-0.3,2.8-0.8s1.3-1.2,1.6-2.1h2.7
				c-0.4,1.5-1.2,2.7-2.5,3.6s-2.8,1.4-4.6,1.4c-1.5,0-2.8-0.3-3.9-1s-2-1.6-2.7-2.8s-1-2.6-1-4.2c0-1.6,0.3-3,1-4.2
				c0.6-1.2,1.5-2.1,2.7-2.8c1.1-0.6,2.5-1,4-1c1.5,0,2.7,0.3,3.9,1c1.1,0.6,2,1.5,2.6,2.6c0.6,1.1,0.9,2.4,0.9,3.8
				C238.5,21.2,238.5,21.7,238.4,22.3z M235.2,17.7c-0.4-0.7-1-1.2-1.8-1.6c-0.7-0.4-1.6-0.5-2.5-0.5c-1.3,0-2.4,0.4-3.3,1.2
				s-1.4,2-1.6,3.4h9.7C235.9,19.2,235.7,18.4,235.2,17.7z"/>
			<path class="st2" d="M243.7,28.7c-0.9-0.4-1.7-1-2.2-1.7c-0.5-0.7-0.8-1.5-0.9-2.5h2.6c0.1,0.8,0.4,1.4,1.1,1.9
				c0.6,0.5,1.5,0.7,2.5,0.7c1,0,1.7-0.2,2.3-0.6c0.6-0.4,0.8-1,0.8-1.6c0-0.7-0.3-1.2-0.9-1.5c-0.6-0.3-1.5-0.6-2.8-1
				c-1.1-0.3-2.1-0.6-2.8-0.9c-0.7-0.3-1.3-0.8-1.8-1.4s-0.8-1.4-0.8-2.4c0-0.8,0.2-1.5,0.7-2.2c0.5-0.7,1.1-1.2,2-1.6
				c0.9-0.4,1.8-0.6,2.9-0.6c1.7,0,3.1,0.4,4.1,1.3c1,0.9,1.6,2,1.7,3.5h-2.5c-0.1-0.8-0.4-1.4-1-1.9c-0.6-0.5-1.4-0.7-2.4-0.7
				c-0.9,0-1.6,0.2-2.2,0.6c-0.5,0.4-0.8,0.9-0.8,1.5c0,0.5,0.2,0.9,0.5,1.2c0.3,0.3,0.7,0.6,1.2,0.8c0.5,0.2,1.2,0.4,2.1,0.7
				c1.1,0.3,2,0.6,2.7,0.9c0.7,0.3,1.3,0.7,1.8,1.3c0.5,0.6,0.8,1.3,0.8,2.3c0,0.8-0.2,1.6-0.7,2.3s-1.1,1.2-2,1.6
				c-0.8,0.4-1.8,0.6-2.9,0.6C245.7,29.3,244.7,29.1,243.7,28.7z"/>
		</g>
	</g>
</g>
<g id="Groupe_315" transform="translate(713.938 1057.744)">
	<path id="Tracé_669" class="st4" d="M-687.6-935.2h106.8 M-681.8-936.3v-35.5h14.3v35.5 M-654.8-936.3V-997h14.3v60.7
		 M-627.9-937.2v-40.2h14.3v40.2 M-600.9-936.3v-53.6h14.3v53.6 M-674.7-1008.2c-4.5,0-8.2,3.7-8.2,8.2c0,4.5,3.7,8.2,8.2,8.2
		c4.5,0,8.2-3.7,8.2-8.2C-666.4-1004.5-670.1-1008.2-674.7-1008.2z M-647.7-1035.6c-4.5,0-8.2,3.7-8.2,8.2c0,4.5,3.7,8.2,8.2,8.2
		c4.5,0,8.2-3.7,8.2-8.2C-639.5-1031.9-643.2-1035.6-647.7-1035.6C-647.7-1035.6-647.7-1035.6-647.7-1035.6z M-620.7-1011.1
		c-4.5,0-8.2,3.7-8.2,8.2c0,4.5,3.7,8.2,8.2,8.2c4.5,0,8.2-3.7,8.2-8.2C-612.5-1007.4-616.2-1011.1-620.7-1011.1z M-593.8-1023.6
		c-4.5,0-8.2,3.7-8.2,8.2c0,4.5,3.7,8.2,8.2,8.2l0,0c4.5,0,8.2-3.7,8.2-8.2l0,0C-585.5-1019.9-589.2-1023.6-593.8-1023.6z
		 M-667.3-1007.5l12.7-12.6 M-640.3-1020.7l12.8,11.8 M-612.6-1006.4l9.7-4.7"/>
</g>
</svg>
